<svg width="193" height="132" viewBox="0 0 193 132" fill="none" xmlns="http://www.w3.org/2000/svg">
<circle cx="28.5" cy="28.5" r="28.5" fill="#FFC700"/>
<g filter="url(#filter0_bd_52_5)">
<rect x="18" y="17" width="160" height="100" rx="10" fill="white" fill-opacity="0.2" shape-rendering="crispEdges"/>
</g>
<path d="M83.416 47.2V64H79.528V50.32H76.168V47.2H83.416ZM101.219 53.464C102.291 53.464 103.267 53.68 104.147 54.112C105.027 54.544 105.723 55.16 106.235 55.96C106.747 56.744 107.003 57.656 107.003 58.696C107.003 59.816 106.723 60.8 106.163 61.648C105.603 62.496 104.835 63.152 103.859 63.616C102.899 64.064 101.827 64.288 100.643 64.288C98.2913 64.288 96.4513 63.568 95.1233 62.128C93.7953 60.688 93.1313 58.632 93.1313 55.96C93.1313 54.056 93.4913 52.424 94.2113 51.064C94.9313 49.704 95.9313 48.672 97.2113 47.968C98.5073 47.264 100.003 46.912 101.699 46.912C102.595 46.912 103.451 47.016 104.267 47.224C105.099 47.416 105.803 47.696 106.379 48.064L104.939 50.92C104.107 50.36 103.059 50.08 101.795 50.08C100.371 50.08 99.2433 50.496 98.4113 51.328C97.5793 52.16 97.1313 53.368 97.0673 54.952C98.0593 53.96 99.4433 53.464 101.219 53.464ZM100.427 61.384C101.259 61.384 101.931 61.16 102.443 60.712C102.971 60.264 103.235 59.656 103.235 58.888C103.235 58.12 102.971 57.512 102.443 57.064C101.931 56.6 101.243 56.368 100.379 56.368C99.5313 56.368 98.8353 56.608 98.2913 57.088C97.7473 57.552 97.4753 58.152 97.4753 58.888C97.4753 59.624 97.7393 60.224 98.2673 60.688C98.7953 61.152 99.5153 61.384 100.427 61.384ZM114.893 47.2V64H111.005V50.32H107.645V47.2H114.893ZM129.307 55.168C130.139 55.584 130.771 56.128 131.203 56.8C131.651 57.472 131.875 58.248 131.875 59.128C131.875 60.168 131.579 61.08 130.987 61.864C130.395 62.632 129.563 63.232 128.491 63.664C127.419 64.08 126.179 64.288 124.771 64.288C123.363 64.288 122.123 64.08 121.051 63.664C119.995 63.232 119.171 62.632 118.579 61.864C118.003 61.08 117.715 60.168 117.715 59.128C117.715 58.248 117.931 57.472 118.363 56.8C118.811 56.128 119.443 55.584 120.259 55.168C119.635 54.784 119.155 54.304 118.819 53.728C118.483 53.136 118.315 52.464 118.315 51.712C118.315 50.736 118.587 49.888 119.131 49.168C119.675 48.448 120.435 47.896 121.411 47.512C122.387 47.112 123.507 46.912 124.771 46.912C126.051 46.912 127.179 47.112 128.155 47.512C129.147 47.896 129.915 48.448 130.459 49.168C131.003 49.888 131.275 50.736 131.275 51.712C131.275 52.464 131.107 53.136 130.771 53.728C130.435 54.304 129.947 54.784 129.307 55.168ZM124.771 49.768C123.987 49.768 123.355 49.96 122.875 50.344C122.411 50.712 122.179 51.224 122.179 51.88C122.179 52.52 122.411 53.024 122.875 53.392C123.339 53.76 123.971 53.944 124.771 53.944C125.571 53.944 126.211 53.76 126.691 53.392C127.171 53.024 127.411 52.52 127.411 51.88C127.411 51.224 127.171 50.712 126.691 50.344C126.211 49.96 125.571 49.768 124.771 49.768ZM124.771 61.432C125.747 61.432 126.515 61.216 127.075 60.784C127.651 60.336 127.939 59.744 127.939 59.008C127.939 58.272 127.651 57.688 127.075 57.256C126.515 56.824 125.747 56.608 124.771 56.608C123.811 56.608 123.051 56.824 122.491 57.256C121.931 57.688 121.651 58.272 121.651 59.008C121.651 59.76 121.931 60.352 122.491 60.784C123.051 61.216 123.811 61.432 124.771 61.432ZM146.476 58.504V59.848H151.66V61.84H146.476V64H142.564V61.84H140.236V59.848H142.564V47.2H149.836C152.124 47.2 153.908 47.68 155.188 48.64C156.484 49.6 157.132 51.008 157.132 52.864C157.132 54.704 156.484 56.104 155.188 57.064C153.908 58.024 152.124 58.504 149.836 58.504H146.476ZM153.196 52.888C153.196 52.072 152.9 51.448 152.308 51.016C151.732 50.584 150.9 50.368 149.812 50.368H146.476V55.456H149.812C150.9 55.456 151.732 55.24 152.308 54.808C152.9 54.36 153.196 53.72 153.196 52.888Z" fill="#0499DD"/>
<path d="M55.4002 49.8399C58.8023 49.8399 61.5602 48.855 61.5602 47.6399C61.5602 46.4249 58.8023 45.4399 55.4002 45.4399C51.9982 45.4399 49.2402 46.4249 49.2402 47.6399C49.2402 48.855 51.9982 49.8399 55.4002 49.8399Z" stroke="#0499DD" stroke-width="0.6" stroke-miterlimit="10" stroke-linecap="round" stroke-linejoin="round"/>
<path d="M49.2402 48.0801C49.2402 48.4814 49.2402 50.3188 49.2402 50.7201C49.2402 51.9349 51.9973 52.9201 55.4002 52.9201C58.8032 52.9201 61.5602 51.9349 61.5602 50.7201C61.5602 50.3188 61.5602 48.4814 61.5602 48.0801" stroke="#0499DD" stroke-width="0.6" stroke-miterlimit="10" stroke-linecap="round" stroke-linejoin="round"/>
<path d="M52.5625 55.7531C53.4117 55.9106 54.3771 55.9999 55.4005 55.9999C58.8035 55.9999 61.5605 55.0148 61.5605 53.7999C61.5605 53.3986 61.5605 51.5612 61.5605 51.1599" stroke="#0499DD" stroke-width="0.6" stroke-miterlimit="10" stroke-linecap="round" stroke-linejoin="round"/>
<path d="M49.2402 51.1599C49.2402 51.5612 49.2402 53.0387 49.2402 53.0387" stroke="#0499DD" stroke-width="0.6" stroke-miterlimit="10" stroke-linecap="round" stroke-linejoin="round"/>
<path d="M52.7715 58.8701C53.5688 59.0047 54.4598 59.08 55.4005 59.08C58.8034 59.08 61.5605 58.0953 61.5605 56.88C61.5605 56.4787 61.5605 54.6413 61.5605 54.24" stroke="#0499DD" stroke-width="0.6" stroke-miterlimit="10" stroke-linecap="round" stroke-linejoin="round"/>
<path d="M52.7373 61.9445C53.5429 62.0826 54.4463 62.1601 55.4002 62.1601C58.8031 62.1601 61.5602 61.1753 61.5602 59.9601C61.5602 59.5588 61.5602 57.7213 61.5602 57.3201" stroke="#0499DD" stroke-width="0.6" stroke-miterlimit="10" stroke-linecap="round" stroke-linejoin="round"/>
<path d="M46.5995 57.3199C50.0015 57.3199 52.7595 56.3349 52.7595 55.1199C52.7595 53.9049 50.0015 52.9199 46.5995 52.9199C43.1974 52.9199 40.4395 53.9049 40.4395 55.1199C40.4395 56.3349 43.1974 57.3199 46.5995 57.3199Z" stroke="#0499DD" stroke-width="0.6" stroke-miterlimit="10" stroke-linecap="round" stroke-linejoin="round"/>
<path d="M40.4395 55.5601C40.4395 55.9613 40.4395 57.7988 40.4395 58.2001C40.4395 59.4153 43.1965 60.4001 46.5995 60.4001C50.0024 60.4001 52.7595 59.4153 52.7595 58.2001C52.7595 57.7988 52.7595 55.9613 52.7595 55.5601" stroke="#0499DD" stroke-width="0.6" stroke-miterlimit="10" stroke-linecap="round" stroke-linejoin="round"/>
<path d="M40.4395 58.6399C40.4395 59.0412 40.4395 60.8786 40.4395 61.2799C40.4395 62.4952 43.1965 63.4799 46.5995 63.4799C50.0024 63.4799 52.7595 62.4952 52.7595 61.2799C52.7595 60.8786 52.7595 59.0412 52.7595 58.6399" stroke="#0499DD" stroke-width="0.6" stroke-miterlimit="10" stroke-linecap="round" stroke-linejoin="round"/>
<path d="M40.4395 61.72C40.4395 62.1213 40.4395 63.9587 40.4395 64.36C40.4395 65.5753 43.1965 66.56 46.5995 66.56C50.0024 66.56 52.7595 65.5753 52.7595 64.36C52.7595 63.9587 52.7595 62.1213 52.7595 61.72" stroke="#0499DD" stroke-width="0.6" stroke-miterlimit="10" stroke-linecap="round" stroke-linejoin="round"/>
<path d="M44.63 83.918C45.2927 84.0767 45.792 84.3613 46.128 84.772C46.4733 85.1733 46.646 85.6913 46.646 86.326C46.646 87.1753 46.3333 87.8333 45.708 88.3C45.092 88.7667 44.1913 89 43.006 89H38.526V79.2H42.74C43.8133 79.2 44.6487 79.4193 45.246 79.858C45.8527 80.2873 46.156 80.908 46.156 81.72C46.156 82.252 46.0207 82.7047 45.75 83.078C45.4887 83.4513 45.1153 83.7313 44.63 83.918ZM39.912 83.512H42.642C43.3233 83.512 43.8413 83.3767 44.196 83.106C44.56 82.8353 44.742 82.4387 44.742 81.916C44.742 81.3933 44.56 80.9967 44.196 80.726C43.832 80.446 43.314 80.306 42.642 80.306H39.912V83.512ZM42.978 87.894C44.4807 87.894 45.232 87.334 45.232 86.214C45.232 85.654 45.0407 85.2433 44.658 84.982C44.2847 84.7113 43.7247 84.576 42.978 84.576H39.912V87.894H42.978ZM52.779 85.136C53.2737 85.2667 53.6563 85.4767 53.927 85.766C54.1977 86.0553 54.333 86.4147 54.333 86.844C54.333 87.2827 54.1837 87.6747 53.885 88.02C53.5863 88.356 53.171 88.622 52.639 88.818C52.1163 89.0047 51.5283 89.098 50.875 89.098C50.3243 89.098 49.783 89.028 49.251 88.888C48.7283 88.7387 48.2617 88.5287 47.851 88.258L48.257 87.236C48.6117 87.46 49.0177 87.6373 49.475 87.768C49.9323 87.8893 50.3943 87.95 50.861 87.95C51.4957 87.95 51.9997 87.8427 52.373 87.628C52.7557 87.404 52.947 87.1053 52.947 86.732C52.947 86.3867 52.793 86.1207 52.485 85.934C52.1863 85.7473 51.7617 85.654 51.211 85.654H49.853V84.688H51.113C51.617 84.688 52.0137 84.5993 52.303 84.422C52.5923 84.2447 52.737 84.002 52.737 83.694C52.737 83.358 52.5643 83.0967 52.219 82.91C51.883 82.7233 51.4257 82.63 50.847 82.63C50.1097 82.63 49.3303 82.8213 48.509 83.204L48.145 82.168C49.0503 81.7107 49.9977 81.482 50.987 81.482C51.5843 81.482 52.121 81.566 52.597 81.734C53.073 81.902 53.4463 82.14 53.717 82.448C53.9877 82.756 54.123 83.106 54.123 83.498C54.123 83.862 54.0017 84.1887 53.759 84.478C53.5163 84.7673 53.1897 84.9867 52.779 85.136ZM60.3102 81.51C61.0289 81.51 61.6729 81.6687 62.2422 81.986C62.8116 82.3033 63.2549 82.7467 63.5722 83.316C63.8989 83.8853 64.0622 84.5433 64.0622 85.29C64.0622 86.0367 63.8989 86.6993 63.5722 87.278C63.2549 87.8473 62.8116 88.2907 62.2422 88.608C61.6729 88.9253 61.0289 89.084 60.3102 89.084C59.7782 89.084 59.2882 88.9813 58.8402 88.776C58.4016 88.5707 58.0282 88.272 57.7202 87.88V91.716H56.3762V81.58H57.6642V82.756C57.9629 82.3453 58.3409 82.0373 58.7982 81.832C59.2556 81.6173 59.7596 81.51 60.3102 81.51ZM60.1982 87.908C60.6742 87.908 61.0989 87.8007 61.4722 87.586C61.8549 87.362 62.1536 87.054 62.3682 86.662C62.5922 86.2607 62.7042 85.8033 62.7042 85.29C62.7042 84.7767 62.5922 84.324 62.3682 83.932C62.1536 83.5307 61.8549 83.2227 61.4722 83.008C61.0989 82.7933 60.6742 82.686 60.1982 82.686C59.7316 82.686 59.3069 82.798 58.9242 83.022C58.5509 83.2367 58.2522 83.54 58.0282 83.932C57.8136 84.324 57.7062 84.7767 57.7062 85.29C57.7062 85.8033 57.8136 86.2607 58.0282 86.662C58.2429 87.054 58.5416 87.362 58.9242 87.586C59.3069 87.8007 59.7316 87.908 60.1982 87.908ZM69.1929 89.084C68.4556 89.084 67.7929 88.9207 67.2049 88.594C66.6169 88.2673 66.1549 87.8193 65.8189 87.25C65.4922 86.6713 65.3289 86.018 65.3289 85.29C65.3289 84.562 65.4922 83.9133 65.8189 83.344C66.1549 82.7653 66.6169 82.3173 67.2049 82C67.7929 81.6733 68.4556 81.51 69.1929 81.51C69.9302 81.51 70.5882 81.6733 71.1669 82C71.7549 82.3173 72.2122 82.7653 72.5389 83.344C72.8749 83.9133 73.0429 84.562 73.0429 85.29C73.0429 86.018 72.8749 86.6713 72.5389 87.25C72.2122 87.8193 71.7549 88.2673 71.1669 88.594C70.5882 88.9207 69.9302 89.084 69.1929 89.084ZM69.1929 87.908C69.6689 87.908 70.0936 87.8007 70.4669 87.586C70.8496 87.362 71.1482 87.054 71.3629 86.662C71.5776 86.2607 71.6849 85.8033 71.6849 85.29C71.6849 84.7767 71.5776 84.324 71.3629 83.932C71.1482 83.5307 70.8496 83.2227 70.4669 83.008C70.0936 82.7933 69.6689 82.686 69.1929 82.686C68.7169 82.686 68.2876 82.7933 67.9049 83.008C67.5316 83.2227 67.2329 83.5307 67.0089 83.932C66.7942 84.324 66.6869 84.7767 66.6869 85.29C66.6869 85.8033 66.7942 86.2607 67.0089 86.662C67.2329 87.054 67.5316 87.362 67.9049 87.586C68.2876 87.8007 68.7169 87.908 69.1929 87.908ZM78.2176 89.084C77.4616 89.084 76.785 88.9207 76.1876 88.594C75.5996 88.2673 75.1376 87.8193 74.8016 87.25C74.4656 86.6713 74.2976 86.018 74.2976 85.29C74.2976 84.562 74.4656 83.9133 74.8016 83.344C75.1376 82.7653 75.5996 82.3173 76.1876 82C76.785 81.6733 77.4616 81.51 78.2176 81.51C78.8896 81.51 79.487 81.6453 80.0096 81.916C80.5416 82.1867 80.9523 82.5787 81.2416 83.092L80.2196 83.75C79.9863 83.3953 79.697 83.1293 79.3516 82.952C79.0063 82.7747 78.6236 82.686 78.2036 82.686C77.7183 82.686 77.2796 82.7933 76.8876 83.008C76.505 83.2227 76.2016 83.5307 75.9776 83.932C75.763 84.324 75.6556 84.7767 75.6556 85.29C75.6556 85.8127 75.763 86.2747 75.9776 86.676C76.2016 87.068 76.505 87.3713 76.8876 87.586C77.2796 87.8007 77.7183 87.908 78.2036 87.908C78.6236 87.908 79.0063 87.8193 79.3516 87.642C79.697 87.4647 79.9863 87.1987 80.2196 86.844L81.2416 87.488C80.9523 88.0013 80.5416 88.398 80.0096 88.678C79.487 88.9487 78.8896 89.084 78.2176 89.084ZM89.1329 81.58V89H87.7889V82.756H84.5969L84.5129 84.408C84.4663 85.4067 84.3776 86.242 84.2469 86.914C84.1163 87.5767 83.9016 88.1087 83.6029 88.51C83.3043 88.9113 82.8889 89.112 82.3569 89.112C82.1143 89.112 81.8389 89.07 81.5309 88.986L81.6149 87.852C81.7363 87.88 81.8483 87.894 81.9509 87.894C82.3243 87.894 82.6043 87.7307 82.7909 87.404C82.9776 87.0773 83.0989 86.69 83.1549 86.242C83.2109 85.794 83.2623 85.1547 83.3089 84.324L83.4349 81.58H89.1329ZM95.0777 84.1C96.011 84.1093 96.725 84.324 97.2197 84.744C97.7144 85.164 97.9617 85.7567 97.9617 86.522C97.9617 87.3247 97.691 87.9453 97.1497 88.384C96.6177 88.8133 95.8524 89.0233 94.8537 89.014L91.7317 89V81.58H93.0757V84.086L95.0777 84.1ZM99.0677 81.58H100.412V89H99.0677V81.58ZM94.7557 87.992C95.3624 88.0013 95.8197 87.88 96.1277 87.628C96.445 87.376 96.6037 87.0027 96.6037 86.508C96.6037 86.0227 96.4497 85.668 96.1417 85.444C95.8337 85.22 95.3717 85.1033 94.7557 85.094L93.0757 85.066V87.978L94.7557 87.992ZM103.025 81.58H104.369V86.984L108.919 81.58H110.137V89H108.793V83.596L104.257 89H103.025V81.58ZM106.497 80.614C105.806 80.614 105.269 80.4507 104.887 80.124C104.504 79.788 104.308 79.3073 104.299 78.682H105.209C105.218 79.0273 105.335 79.3073 105.559 79.522C105.792 79.7273 106.1 79.83 106.483 79.83C106.865 79.83 107.173 79.7273 107.407 79.522C107.64 79.3073 107.761 79.0273 107.771 78.682H108.709C108.699 79.3073 108.499 79.788 108.107 80.124C107.715 80.4507 107.178 80.614 106.497 80.614ZM120.285 81.832C120.976 81.832 121.592 81.986 122.133 82.294C122.674 82.602 123.094 83.0313 123.393 83.582C123.701 84.1233 123.855 84.744 123.855 85.444C123.855 86.1627 123.692 86.802 123.365 87.362C123.048 87.9127 122.595 88.342 122.007 88.65C121.428 88.958 120.766 89.112 120.019 89.112C118.759 89.112 117.784 88.6827 117.093 87.824C116.412 86.956 116.071 85.738 116.071 84.17C116.071 82.6487 116.384 81.4587 117.009 80.6C117.634 79.732 118.591 79.158 119.879 78.878L123.267 78.122L123.463 79.354L120.341 80.026C119.37 80.2407 118.647 80.6047 118.171 81.118C117.695 81.6313 117.424 82.3687 117.359 83.33C117.676 82.854 118.087 82.4853 118.591 82.224C119.095 81.9627 119.66 81.832 120.285 81.832ZM120.047 87.992C120.523 87.992 120.943 87.8847 121.307 87.67C121.68 87.4553 121.97 87.1613 122.175 86.788C122.38 86.4053 122.483 85.9713 122.483 85.486C122.483 84.7487 122.259 84.156 121.811 83.708C121.363 83.26 120.775 83.036 120.047 83.036C119.319 83.036 118.726 83.26 118.269 83.708C117.821 84.156 117.597 84.7487 117.597 85.486C117.597 85.9713 117.7 86.4053 117.905 86.788C118.12 87.1613 118.414 87.4553 118.787 87.67C119.16 87.8847 119.58 87.992 120.047 87.992ZM125.775 81.58H127.119V86.984L131.669 81.58H132.887V89H131.543V83.596L127.007 89H125.775V81.58ZM141.865 81.58V89H140.521V82.756H137.329L137.245 84.408C137.199 85.4067 137.11 86.242 136.979 86.914C136.849 87.5767 136.634 88.1087 136.335 88.51C136.037 88.9113 135.621 89.112 135.089 89.112C134.847 89.112 134.571 89.07 134.263 88.986L134.347 87.852C134.469 87.88 134.581 87.894 134.683 87.894C135.057 87.894 135.337 87.7307 135.523 87.404C135.71 87.0773 135.831 86.69 135.887 86.242C135.943 85.794 135.995 85.1547 136.041 84.324L136.167 81.58H141.865ZM151.17 85.332C151.17 85.4347 151.161 85.57 151.142 85.738H145.122C145.206 86.3913 145.491 86.9187 145.976 87.32C146.471 87.712 147.082 87.908 147.81 87.908C148.697 87.908 149.411 87.6093 149.952 87.012L150.694 87.88C150.358 88.272 149.938 88.5707 149.434 88.776C148.939 88.9813 148.384 89.084 147.768 89.084C146.984 89.084 146.289 88.9253 145.682 88.608C145.075 88.2813 144.604 87.8287 144.268 87.25C143.941 86.6713 143.778 86.018 143.778 85.29C143.778 84.5713 143.937 83.9227 144.254 83.344C144.581 82.7653 145.024 82.3173 145.584 82C146.153 81.6733 146.793 81.51 147.502 81.51C148.211 81.51 148.841 81.6733 149.392 82C149.952 82.3173 150.386 82.7653 150.694 83.344C151.011 83.9227 151.17 84.5853 151.17 85.332ZM147.502 82.644C146.858 82.644 146.317 82.84 145.878 83.232C145.449 83.624 145.197 84.1373 145.122 84.772H149.882C149.807 84.1467 149.551 83.638 149.112 83.246C148.683 82.8447 148.146 82.644 147.502 82.644ZM158.471 82.756H155.755V89H154.411V82.756H151.695V81.58H158.471V82.756Z" fill="#282828"/>
<defs>
<filter id="filter0_bd_52_5" x="-2" y="-3" width="200" height="140" filterUnits="userSpaceOnUse" color-interpolation-filters="sRGB">
<feFlood flood-opacity="0" result="BackgroundImageFix"/>
<feGaussianBlur in="BackgroundImage" stdDeviation="10"/>
<feComposite in2="SourceAlpha" operator="in" result="effect1_backgroundBlur_52_5"/>
<feColorMatrix in="SourceAlpha" type="matrix" values="0 0 0 0 0 0 0 0 0 0 0 0 0 0 0 0 0 0 127 0" result="hardAlpha"/>
<feOffset/>
<feGaussianBlur stdDeviation="7.5"/>
<feComposite in2="hardAlpha" operator="out"/>
<feColorMatrix type="matrix" values="0 0 0 0 0 0 0 0 0 0 0 0 0 0 0 0 0 0 0.1 0"/>
<feBlend mode="normal" in2="effect1_backgroundBlur_52_5" result="effect2_dropShadow_52_5"/>
<feBlend mode="normal" in="SourceGraphic" in2="effect2_dropShadow_52_5" result="shape"/>
</filter>
</defs>
</svg>
