<svg width="253" height="132" viewBox="0 0 253 132" fill="none" xmlns="http://www.w3.org/2000/svg">
<circle cx="28.5" cy="28.5" r="28.5" fill="#FFC700"/>
<g filter="url(#filter0_bd_55_148)">
<rect x="18" y="17" width="220" height="100" rx="10" fill="white" fill-opacity="0.2" shape-rendering="crispEdges"/>
</g>
<path d="M117.696 49.512C120.064 49.512 121.808 49.984 122.928 50.928C124.064 51.872 124.632 53.136 124.632 54.72C124.632 55.744 124.376 56.68 123.864 57.528C123.352 58.36 122.568 59.032 121.512 59.544C120.472 60.04 119.184 60.288 117.648 60.288C116.464 60.288 115.296 60.136 114.144 59.832C113.008 59.512 112.04 59.064 111.24 58.488L112.776 55.512C113.416 55.992 114.152 56.368 114.984 56.64C115.816 56.896 116.672 57.024 117.552 57.024C118.528 57.024 119.296 56.832 119.856 56.448C120.416 56.064 120.696 55.528 120.696 54.84C120.696 54.12 120.4 53.576 119.808 53.208C119.232 52.84 118.224 52.656 116.784 52.656H112.488L113.352 43.2H123.6V46.32H116.592L116.328 49.512H117.696ZM133.409 60.288C132.017 60.288 130.777 59.944 129.689 59.256C128.601 58.568 127.745 57.576 127.121 56.28C126.513 54.968 126.209 53.408 126.209 51.6C126.209 49.792 126.513 48.24 127.121 46.944C127.745 45.632 128.601 44.632 129.689 43.944C130.777 43.256 132.017 42.912 133.409 42.912C134.801 42.912 136.041 43.256 137.129 43.944C138.217 44.632 139.065 45.632 139.673 46.944C140.297 48.24 140.609 49.792 140.609 51.6C140.609 53.408 140.297 54.968 139.673 56.28C139.065 57.576 138.217 58.568 137.129 59.256C136.041 59.944 134.801 60.288 133.409 60.288ZM133.409 57C134.433 57 135.233 56.56 135.809 55.68C136.401 54.8 136.697 53.44 136.697 51.6C136.697 49.76 136.401 48.4 135.809 47.52C135.233 46.64 134.433 46.2 133.409 46.2C132.401 46.2 131.601 46.64 131.009 47.52C130.433 48.4 130.145 49.76 130.145 51.6C130.145 53.44 130.433 54.8 131.009 55.68C131.601 56.56 132.401 57 133.409 57ZM149.699 60.288C148.307 60.288 147.067 59.944 145.979 59.256C144.891 58.568 144.035 57.576 143.411 56.28C142.803 54.968 142.499 53.408 142.499 51.6C142.499 49.792 142.803 48.24 143.411 46.944C144.035 45.632 144.891 44.632 145.979 43.944C147.067 43.256 148.307 42.912 149.699 42.912C151.091 42.912 152.331 43.256 153.419 43.944C154.507 44.632 155.355 45.632 155.963 46.944C156.587 48.24 156.899 49.792 156.899 51.6C156.899 53.408 156.587 54.968 155.963 56.28C155.355 57.576 154.507 58.568 153.419 59.256C152.331 59.944 151.091 60.288 149.699 60.288ZM149.699 57C150.723 57 151.523 56.56 152.099 55.68C152.691 54.8 152.987 53.44 152.987 51.6C152.987 49.76 152.691 48.4 152.099 47.52C151.523 46.64 150.723 46.2 149.699 46.2C148.691 46.2 147.891 46.64 147.299 47.52C146.723 48.4 146.435 49.76 146.435 51.6C146.435 53.44 146.723 54.8 147.299 55.68C147.891 56.56 148.691 57 149.699 57ZM171.608 54.504V55.848H176.792V57.84H171.608V60H167.696V57.84H165.368V55.848H167.696V43.2H174.968C177.256 43.2 179.04 43.68 180.32 44.64C181.616 45.6 182.264 47.008 182.264 48.864C182.264 50.704 181.616 52.104 180.32 53.064C179.04 54.024 177.256 54.504 174.968 54.504H171.608ZM178.328 48.888C178.328 48.072 178.032 47.448 177.44 47.016C176.864 46.584 176.032 46.368 174.944 46.368H171.608V51.456H174.944C176.032 51.456 176.864 51.24 177.44 50.808C178.032 50.36 178.328 49.72 178.328 48.888Z" fill="#0499DD"/>
<path d="M90.4002 45.8399C93.8023 45.8399 96.5602 44.855 96.5602 43.6399C96.5602 42.4249 93.8023 41.4399 90.4002 41.4399C86.9982 41.4399 84.2402 42.4249 84.2402 43.6399C84.2402 44.855 86.9982 45.8399 90.4002 45.8399Z" stroke="#0499DD" stroke-width="0.6" stroke-miterlimit="10" stroke-linecap="round" stroke-linejoin="round"/>
<path d="M84.2402 44.0801C84.2402 44.4814 84.2402 46.3188 84.2402 46.7201C84.2402 47.9349 86.9973 48.9201 90.4002 48.9201C93.8032 48.9201 96.5602 47.9349 96.5602 46.7201C96.5602 46.3188 96.5602 44.4814 96.5602 44.0801" stroke="#0499DD" stroke-width="0.6" stroke-miterlimit="10" stroke-linecap="round" stroke-linejoin="round"/>
<path d="M87.5625 51.7531C88.4117 51.9106 89.3771 51.9999 90.4005 51.9999C93.8035 51.9999 96.5605 51.0148 96.5605 49.7999C96.5605 49.3986 96.5605 47.5612 96.5605 47.1599" stroke="#0499DD" stroke-width="0.6" stroke-miterlimit="10" stroke-linecap="round" stroke-linejoin="round"/>
<path d="M84.2402 47.1599C84.2402 47.5612 84.2402 49.0387 84.2402 49.0387" stroke="#0499DD" stroke-width="0.6" stroke-miterlimit="10" stroke-linecap="round" stroke-linejoin="round"/>
<path d="M87.7715 54.8701C88.5688 55.0047 89.4598 55.08 90.4005 55.08C93.8034 55.08 96.5605 54.0953 96.5605 52.88C96.5605 52.4787 96.5605 50.6413 96.5605 50.24" stroke="#0499DD" stroke-width="0.6" stroke-miterlimit="10" stroke-linecap="round" stroke-linejoin="round"/>
<path d="M87.7373 57.9445C88.5429 58.0826 89.4463 58.1601 90.4002 58.1601C93.8031 58.1601 96.5602 57.1753 96.5602 55.9601C96.5602 55.5588 96.5602 53.7213 96.5602 53.3201" stroke="#0499DD" stroke-width="0.6" stroke-miterlimit="10" stroke-linecap="round" stroke-linejoin="round"/>
<path d="M81.5995 53.3199C85.0015 53.3199 87.7595 52.3349 87.7595 51.1199C87.7595 49.9049 85.0015 48.9199 81.5995 48.9199C78.1974 48.9199 75.4395 49.9049 75.4395 51.1199C75.4395 52.3349 78.1974 53.3199 81.5995 53.3199Z" stroke="#0499DD" stroke-width="0.6" stroke-miterlimit="10" stroke-linecap="round" stroke-linejoin="round"/>
<path d="M75.4395 51.5601C75.4395 51.9613 75.4395 53.7988 75.4395 54.2001C75.4395 55.4153 78.1965 56.4001 81.5995 56.4001C85.0024 56.4001 87.7595 55.4153 87.7595 54.2001C87.7595 53.7988 87.7595 51.9613 87.7595 51.5601" stroke="#0499DD" stroke-width="0.6" stroke-miterlimit="10" stroke-linecap="round" stroke-linejoin="round"/>
<path d="M75.4395 54.6399C75.4395 55.0412 75.4395 56.8786 75.4395 57.2799C75.4395 58.4952 78.1965 59.4799 81.5995 59.4799C85.0024 59.4799 87.7595 58.4952 87.7595 57.2799C87.7595 56.8786 87.7595 55.0412 87.7595 54.6399" stroke="#0499DD" stroke-width="0.6" stroke-miterlimit="10" stroke-linecap="round" stroke-linejoin="round"/>
<path d="M75.4395 57.72C75.4395 58.1213 75.4395 59.9587 75.4395 60.36C75.4395 61.5753 78.1965 62.56 81.5995 62.56C85.0024 62.56 87.7595 61.5753 87.7595 60.36C87.7595 59.9587 87.7595 58.1213 87.7595 57.72" stroke="#0499DD" stroke-width="0.6" stroke-miterlimit="10" stroke-linecap="round" stroke-linejoin="round"/>
<path d="M51.954 75.2V85H50.554V80.632H44.926V85H43.526V75.2H44.926V79.414H50.554V75.2H51.954ZM57.9644 85.084C57.227 85.084 56.5644 84.9207 55.9764 84.594C55.3884 84.2673 54.9264 83.8193 54.5904 83.25C54.2637 82.6713 54.1004 82.018 54.1004 81.29C54.1004 80.562 54.2637 79.9133 54.5904 79.344C54.9264 78.7653 55.3884 78.3173 55.9764 78C56.5644 77.6733 57.227 77.51 57.9644 77.51C58.7017 77.51 59.3597 77.6733 59.9384 78C60.5264 78.3173 60.9837 78.7653 61.3104 79.344C61.6464 79.9133 61.8144 80.562 61.8144 81.29C61.8144 82.018 61.6464 82.6713 61.3104 83.25C60.9837 83.8193 60.5264 84.2673 59.9384 84.594C59.3597 84.9207 58.7017 85.084 57.9644 85.084ZM57.9644 83.908C58.4404 83.908 58.865 83.8007 59.2384 83.586C59.621 83.362 59.9197 83.054 60.1344 82.662C60.349 82.2607 60.4564 81.8033 60.4564 81.29C60.4564 80.7767 60.349 80.324 60.1344 79.932C59.9197 79.5307 59.621 79.2227 59.2384 79.008C58.865 78.7933 58.4404 78.686 57.9644 78.686C57.4884 78.686 57.059 78.7933 56.6764 79.008C56.303 79.2227 56.0044 79.5307 55.7804 79.932C55.5657 80.324 55.4584 80.7767 55.4584 81.29C55.4584 81.8033 55.5657 82.2607 55.7804 82.662C56.0044 83.054 56.303 83.362 56.6764 83.586C57.059 83.8007 57.4884 83.908 57.9644 83.908ZM68.8091 81.15C69.7705 81.3927 70.2511 81.9947 70.2511 82.956C70.2511 83.6093 70.0038 84.1133 69.5091 84.468C69.0238 84.8227 68.2958 85 67.3251 85H63.7551V77.58H67.1991C68.0765 77.58 68.7625 77.748 69.2571 78.084C69.7518 78.4107 69.9991 78.8773 69.9991 79.484C69.9991 79.876 69.8918 80.2167 69.6771 80.506C69.4718 80.786 69.1825 81.0007 68.8091 81.15ZM65.0711 80.772H67.0871C67.6005 80.772 67.9878 80.6787 68.2491 80.492C68.5198 80.3053 68.6551 80.0347 68.6551 79.68C68.6551 78.9707 68.1325 78.616 67.0871 78.616H65.0711V80.772ZM67.2271 83.964C67.7871 83.964 68.2071 83.8753 68.4871 83.698C68.7671 83.5207 68.9071 83.2453 68.9071 82.872C68.9071 82.4893 68.7765 82.2047 68.5151 82.018C68.2631 81.8313 67.8618 81.738 67.3111 81.738H65.0711V83.964H67.2271ZM75.5327 85.084C74.7954 85.084 74.1327 84.9207 73.5447 84.594C72.9567 84.2673 72.4947 83.8193 72.1587 83.25C71.8321 82.6713 71.6687 82.018 71.6687 81.29C71.6687 80.562 71.8321 79.9133 72.1587 79.344C72.4947 78.7653 72.9567 78.3173 73.5447 78C74.1327 77.6733 74.7954 77.51 75.5327 77.51C76.2701 77.51 76.9281 77.6733 77.5067 78C78.0947 78.3173 78.5521 78.7653 78.8787 79.344C79.2147 79.9133 79.3827 80.562 79.3827 81.29C79.3827 82.018 79.2147 82.6713 78.8787 83.25C78.5521 83.8193 78.0947 84.2673 77.5067 84.594C76.9281 84.9207 76.2701 85.084 75.5327 85.084ZM75.5327 83.908C76.0087 83.908 76.4334 83.8007 76.8067 83.586C77.1894 83.362 77.4881 83.054 77.7027 82.662C77.9174 82.2607 78.0247 81.8033 78.0247 81.29C78.0247 80.7767 77.9174 80.324 77.7027 79.932C77.4881 79.5307 77.1894 79.2227 76.8067 79.008C76.4334 78.7933 76.0087 78.686 75.5327 78.686C75.0567 78.686 74.6274 78.7933 74.2447 79.008C73.8714 79.2227 73.5727 79.5307 73.3487 79.932C73.1341 80.324 73.0267 80.7767 73.0267 81.29C73.0267 81.8033 73.1341 82.2607 73.3487 82.662C73.5727 83.054 73.8714 83.362 74.2447 83.586C74.6274 83.8007 75.0567 83.908 75.5327 83.908ZM83.9011 77.51C84.9278 77.51 85.7118 77.762 86.2531 78.266C86.8038 78.77 87.0791 79.5213 87.0791 80.52V85H85.8051V84.02C85.5811 84.3653 85.2591 84.6313 84.8391 84.818C84.4285 84.9953 83.9385 85.084 83.3691 85.084C82.5385 85.084 81.8711 84.8833 81.3671 84.482C80.8725 84.0807 80.6251 83.5533 80.6251 82.9C80.6251 82.2467 80.8631 81.724 81.3391 81.332C81.8151 80.9307 82.5711 80.73 83.6071 80.73H85.7351V80.464C85.7351 79.8853 85.5671 79.442 85.2311 79.134C84.8951 78.826 84.4005 78.672 83.7471 78.672C83.3085 78.672 82.8791 78.7467 82.4591 78.896C82.0391 79.036 81.6845 79.2273 81.3951 79.47L80.8351 78.462C81.2178 78.154 81.6751 77.9207 82.2071 77.762C82.7391 77.594 83.3038 77.51 83.9011 77.51ZM83.5931 84.048C84.1065 84.048 84.5498 83.936 84.9231 83.712C85.2965 83.4787 85.5671 83.152 85.7351 82.732V81.696H83.6631C82.5245 81.696 81.9551 82.0787 81.9551 82.844C81.9551 83.2173 82.0998 83.5113 82.3891 83.726C82.6785 83.9407 83.0798 84.048 83.5931 84.048ZM98.8653 81.276C98.8653 82.424 98.4826 83.3293 97.7173 83.992C96.9519 84.6547 95.8739 85.0233 94.4833 85.098V87.716H93.1673V85.098C91.7766 85.0233 90.6986 84.6593 89.9333 84.006C89.1773 83.3433 88.7993 82.4333 88.7993 81.276C88.7993 80.128 89.1773 79.232 89.9333 78.588C90.6893 77.944 91.7673 77.5847 93.1673 77.51V74.612H94.4833V77.51C95.8739 77.5847 96.9519 77.9487 97.7173 78.602C98.4826 79.246 98.8653 80.1373 98.8653 81.276ZM90.1293 81.276C90.1293 82.0693 90.3813 82.69 90.8853 83.138C91.3986 83.586 92.1593 83.8427 93.1673 83.908V78.7C92.1499 78.7653 91.3893 79.0173 90.8853 79.456C90.3813 79.8947 90.1293 80.5013 90.1293 81.276ZM94.4833 83.922C96.5179 83.7633 97.5353 82.8813 97.5353 81.276C97.5353 80.492 97.2786 79.8853 96.7653 79.456C96.2519 79.0173 95.4913 78.7653 94.4833 78.7V83.922ZM100.765 77.58H102.109V82.984L106.659 77.58H107.877V85H106.533V79.596L101.997 85H100.765V77.58ZM110.486 77.58H111.83V80.73H116.058V77.58H117.402V85H116.058V81.892H111.83V85H110.486V77.58ZM123.249 85.084C122.493 85.084 121.816 84.9207 121.219 84.594C120.631 84.2673 120.169 83.8193 119.833 83.25C119.497 82.6713 119.329 82.018 119.329 81.29C119.329 80.562 119.497 79.9133 119.833 79.344C120.169 78.7653 120.631 78.3173 121.219 78C121.816 77.6733 122.493 77.51 123.249 77.51C123.921 77.51 124.518 77.6453 125.041 77.916C125.573 78.1867 125.984 78.5787 126.273 79.092L125.251 79.75C125.018 79.3953 124.728 79.1293 124.383 78.952C124.038 78.7747 123.655 78.686 123.235 78.686C122.75 78.686 122.311 78.7933 121.919 79.008C121.536 79.2227 121.233 79.5307 121.009 79.932C120.794 80.324 120.687 80.7767 120.687 81.29C120.687 81.8127 120.794 82.2747 121.009 82.676C121.233 83.068 121.536 83.3713 121.919 83.586C122.311 83.8007 122.75 83.908 123.235 83.908C123.655 83.908 124.038 83.8193 124.383 83.642C124.728 83.4647 125.018 83.1987 125.251 82.844L126.273 83.488C125.984 84.0013 125.573 84.398 125.041 84.678C124.518 84.9487 123.921 85.084 123.249 85.084ZM130.897 81.864H129.357V85H128.013V77.58H129.357V80.716H130.925L133.333 77.58H134.775L131.961 81.15L134.971 85H133.389L130.897 81.864ZM138.889 77.51C139.916 77.51 140.7 77.762 141.241 78.266C141.792 78.77 142.067 79.5213 142.067 80.52V85H140.793V84.02C140.569 84.3653 140.247 84.6313 139.827 84.818C139.417 84.9953 138.927 85.084 138.357 85.084C137.527 85.084 136.859 84.8833 136.355 84.482C135.861 84.0807 135.613 83.5533 135.613 82.9C135.613 82.2467 135.851 81.724 136.327 81.332C136.803 80.9307 137.559 80.73 138.595 80.73H140.723V80.464C140.723 79.8853 140.555 79.442 140.219 79.134C139.883 78.826 139.389 78.672 138.735 78.672C138.297 78.672 137.867 78.7467 137.447 78.896C137.027 79.036 136.673 79.2273 136.383 79.47L135.823 78.462C136.206 78.154 136.663 77.9207 137.195 77.762C137.727 77.594 138.292 77.51 138.889 77.51ZM138.581 84.048C139.095 84.048 139.538 83.936 139.911 83.712C140.285 83.4787 140.555 83.152 140.723 82.732V81.696H138.651C137.513 81.696 136.943 82.0787 136.943 82.844C136.943 83.2173 137.088 83.5113 137.377 83.726C137.667 83.9407 138.068 84.048 138.581 84.048ZM150.438 77.58V85H149.234V82.648H147.078H146.924L145.3 85H143.858L145.664 82.466C145.104 82.298 144.674 82.0227 144.376 81.64C144.077 81.248 143.928 80.7627 143.928 80.184C143.928 79.3347 144.217 78.6907 144.796 78.252C145.374 77.804 146.172 77.58 147.19 77.58H150.438ZM145.3 80.226C145.3 80.7207 145.454 81.0893 145.762 81.332C146.079 81.5653 146.55 81.682 147.176 81.682H149.234V78.756H147.232C145.944 78.756 145.3 79.246 145.3 80.226ZM163.694 77.58V85H162.35V78.756H158.164V85H156.82V77.58H163.694ZM173 81.332C173 81.4347 172.991 81.57 172.972 81.738H166.952C167.036 82.3913 167.321 82.9187 167.806 83.32C168.301 83.712 168.912 83.908 169.64 83.908C170.527 83.908 171.241 83.6093 171.782 83.012L172.524 83.88C172.188 84.272 171.768 84.5707 171.264 84.776C170.77 84.9813 170.214 85.084 169.598 85.084C168.814 85.084 168.119 84.9253 167.512 84.608C166.906 84.2813 166.434 83.8287 166.098 83.25C165.772 82.6713 165.608 82.018 165.608 81.29C165.608 80.5713 165.767 79.9227 166.084 79.344C166.411 78.7653 166.854 78.3173 167.414 78C167.984 77.6733 168.623 77.51 169.332 77.51C170.042 77.51 170.672 77.6733 171.222 78C171.782 78.3173 172.216 78.7653 172.524 79.344C172.842 79.9227 173 80.5853 173 81.332ZM169.332 78.644C168.688 78.644 168.147 78.84 167.708 79.232C167.279 79.624 167.027 80.1373 166.952 80.772H171.712C171.638 80.1467 171.381 79.638 170.942 79.246C170.513 78.8447 169.976 78.644 169.332 78.644ZM185.655 77.58V85H175.085V77.58H176.429V83.824H179.705V77.58H181.049V83.824H184.311V77.58H185.655ZM186.761 83.824V86.582H185.501V85H184.255V83.824H186.761ZM194.971 81.332C194.971 81.4347 194.962 81.57 194.943 81.738H188.923C189.007 82.3913 189.292 82.9187 189.777 83.32C190.272 83.712 190.883 83.908 191.611 83.908C192.498 83.908 193.212 83.6093 193.753 83.012L194.495 83.88C194.159 84.272 193.739 84.5707 193.235 84.776C192.74 84.9813 192.185 85.084 191.569 85.084C190.785 85.084 190.09 84.9253 189.483 84.608C188.876 84.2813 188.405 83.8287 188.069 83.25C187.742 82.6713 187.579 82.018 187.579 81.29C187.579 80.5713 187.738 79.9227 188.055 79.344C188.382 78.7653 188.825 78.3173 189.385 78C189.954 77.6733 190.594 77.51 191.303 77.51C192.012 77.51 192.642 77.6733 193.193 78C193.753 78.3173 194.187 78.7653 194.495 79.344C194.812 79.9227 194.971 80.5853 194.971 81.332ZM191.303 78.644C190.659 78.644 190.118 78.84 189.679 79.232C189.25 79.624 188.998 80.1373 188.923 80.772H193.683C193.608 80.1467 193.352 79.638 192.913 79.246C192.484 78.8447 191.947 78.644 191.303 78.644ZM200.99 77.51C201.709 77.51 202.353 77.6687 202.922 77.986C203.491 78.3033 203.935 78.7467 204.252 79.316C204.579 79.8853 204.742 80.5433 204.742 81.29C204.742 82.0367 204.579 82.6993 204.252 83.278C203.935 83.8473 203.491 84.2907 202.922 84.608C202.353 84.9253 201.709 85.084 200.99 85.084C200.458 85.084 199.968 84.9813 199.52 84.776C199.081 84.5707 198.708 84.272 198.4 83.88V87.716H197.056V77.58H198.344V78.756C198.643 78.3453 199.021 78.0373 199.478 77.832C199.935 77.6173 200.439 77.51 200.99 77.51ZM200.878 83.908C201.354 83.908 201.779 83.8007 202.152 83.586C202.535 83.362 202.833 83.054 203.048 82.662C203.272 82.2607 203.384 81.8033 203.384 81.29C203.384 80.7767 203.272 80.324 203.048 79.932C202.833 79.5307 202.535 79.2227 202.152 79.008C201.779 78.7933 201.354 78.686 200.878 78.686C200.411 78.686 199.987 78.798 199.604 79.022C199.231 79.2367 198.932 79.54 198.708 79.932C198.493 80.324 198.386 80.7767 198.386 81.29C198.386 81.8033 198.493 82.2607 198.708 82.662C198.923 83.054 199.221 83.362 199.604 83.586C199.987 83.8007 200.411 83.908 200.878 83.908ZM209.272 77.51C210.299 77.51 211.083 77.762 211.624 78.266C212.175 78.77 212.45 79.5213 212.45 80.52V85H211.176V84.02C210.952 84.3653 210.63 84.6313 210.21 84.818C209.8 84.9953 209.31 85.084 208.74 85.084C207.91 85.084 207.242 84.8833 206.738 84.482C206.244 84.0807 205.996 83.5533 205.996 82.9C205.996 82.2467 206.234 81.724 206.71 81.332C207.186 80.9307 207.942 80.73 208.978 80.73H211.106V80.464C211.106 79.8853 210.938 79.442 210.602 79.134C210.266 78.826 209.772 78.672 209.118 78.672C208.68 78.672 208.25 78.7467 207.83 78.896C207.41 79.036 207.056 79.2273 206.766 79.47L206.206 78.462C206.589 78.154 207.046 77.9207 207.578 77.762C208.11 77.594 208.675 77.51 209.272 77.51ZM208.964 84.048C209.478 84.048 209.921 83.936 210.294 83.712C210.668 83.4787 210.938 83.152 211.106 82.732V81.696H209.034C207.896 81.696 207.326 82.0787 207.326 82.844C207.326 83.2173 207.471 83.5113 207.76 83.726C208.05 83.9407 208.451 84.048 208.964 84.048Z" fill="#282828"/>
<defs>
<filter id="filter0_bd_55_148" x="-2" y="-3" width="260" height="140" filterUnits="userSpaceOnUse" color-interpolation-filters="sRGB">
<feFlood flood-opacity="0" result="BackgroundImageFix"/>
<feGaussianBlur in="BackgroundImage" stdDeviation="10"/>
<feComposite in2="SourceAlpha" operator="in" result="effect1_backgroundBlur_55_148"/>
<feColorMatrix in="SourceAlpha" type="matrix" values="0 0 0 0 0 0 0 0 0 0 0 0 0 0 0 0 0 0 127 0" result="hardAlpha"/>
<feOffset/>
<feGaussianBlur stdDeviation="7.5"/>
<feComposite in2="hardAlpha" operator="out"/>
<feColorMatrix type="matrix" values="0 0 0 0 0 0 0 0 0 0 0 0 0 0 0 0 0 0 0.1 0"/>
<feBlend mode="normal" in2="effect1_backgroundBlur_55_148" result="effect2_dropShadow_55_148"/>
<feBlend mode="normal" in="SourceGraphic" in2="effect2_dropShadow_55_148" result="shape"/>
</filter>
</defs>
</svg>
