<svg width="193" height="132" viewBox="0 0 193 132" fill="none" xmlns="http://www.w3.org/2000/svg">
<circle cx="28.5" cy="28.5" r="28.5" fill="#FFC700"/>
<g filter="url(#filter0_bd_71_2388)">
<rect x="18" y="17" width="160" height="100" rx="10" fill="white" fill-opacity="0.2" shape-rendering="crispEdges"/>
</g>
<path d="M84.416 43.2V60H80.528V46.32H77.168V43.2H84.416ZM109.515 56.472H106.779V60H102.987V56.472H93.9393V53.856L101.859 43.2H105.939L98.5953 53.304H103.107V50.16H106.779V53.304H109.515V56.472ZM116.549 43.2V60H112.661V46.32H109.301V43.2H116.549ZM132.019 56.832V60H119.323V57.48L125.803 51.36C126.491 50.704 126.955 50.144 127.195 49.68C127.435 49.2 127.555 48.728 127.555 48.264C127.555 47.592 127.323 47.08 126.859 46.728C126.411 46.36 125.747 46.176 124.867 46.176C124.131 46.176 123.467 46.32 122.875 46.608C122.283 46.88 121.787 47.296 121.387 47.856L118.555 46.032C119.211 45.056 120.115 44.296 121.267 43.752C122.419 43.192 123.739 42.912 125.227 42.912C126.475 42.912 127.563 43.12 128.491 43.536C129.435 43.936 130.163 44.512 130.675 45.264C131.203 46 131.467 46.872 131.467 47.88C131.467 48.792 131.275 49.648 130.891 50.448C130.507 51.248 129.763 52.16 128.659 53.184L124.795 56.832H132.019ZM146.444 54.504V55.848H151.628V57.84H146.444V60H142.532V57.84H140.204V55.848H142.532V43.2H149.804C152.092 43.2 153.876 43.68 155.156 44.64C156.452 45.6 157.1 47.008 157.1 48.864C157.1 50.704 156.452 52.104 155.156 53.064C153.876 54.024 152.092 54.504 149.804 54.504H146.444ZM153.164 48.888C153.164 48.072 152.868 47.448 152.276 47.016C151.7 46.584 150.868 46.368 149.78 46.368H146.444V51.456H149.78C150.868 51.456 151.7 51.24 152.276 50.808C152.868 50.36 153.164 49.72 153.164 48.888Z" fill="#0499DD"/>
<path d="M56.4002 45.8399C59.8023 45.8399 62.5602 44.855 62.5602 43.6399C62.5602 42.4249 59.8023 41.4399 56.4002 41.4399C52.9982 41.4399 50.2402 42.4249 50.2402 43.6399C50.2402 44.855 52.9982 45.8399 56.4002 45.8399Z" stroke="#0499DD" stroke-width="0.6" stroke-miterlimit="10" stroke-linecap="round" stroke-linejoin="round"/>
<path d="M50.2402 44.0801C50.2402 44.4814 50.2402 46.3188 50.2402 46.7201C50.2402 47.9349 52.9973 48.9201 56.4002 48.9201C59.8032 48.9201 62.5602 47.9349 62.5602 46.7201C62.5602 46.3188 62.5602 44.4814 62.5602 44.0801" stroke="#0499DD" stroke-width="0.6" stroke-miterlimit="10" stroke-linecap="round" stroke-linejoin="round"/>
<path d="M53.5625 51.7531C54.4117 51.9106 55.3771 51.9999 56.4005 51.9999C59.8035 51.9999 62.5605 51.0148 62.5605 49.7999C62.5605 49.3986 62.5605 47.5612 62.5605 47.1599" stroke="#0499DD" stroke-width="0.6" stroke-miterlimit="10" stroke-linecap="round" stroke-linejoin="round"/>
<path d="M50.2402 47.1599C50.2402 47.5612 50.2402 49.0387 50.2402 49.0387" stroke="#0499DD" stroke-width="0.6" stroke-miterlimit="10" stroke-linecap="round" stroke-linejoin="round"/>
<path d="M53.7715 54.8701C54.5688 55.0047 55.4598 55.08 56.4005 55.08C59.8034 55.08 62.5605 54.0953 62.5605 52.88C62.5605 52.4787 62.5605 50.6413 62.5605 50.24" stroke="#0499DD" stroke-width="0.6" stroke-miterlimit="10" stroke-linecap="round" stroke-linejoin="round"/>
<path d="M53.7373 57.9445C54.5429 58.0826 55.4463 58.1601 56.4002 58.1601C59.8031 58.1601 62.5602 57.1753 62.5602 55.9601C62.5602 55.5588 62.5602 53.7213 62.5602 53.3201" stroke="#0499DD" stroke-width="0.6" stroke-miterlimit="10" stroke-linecap="round" stroke-linejoin="round"/>
<path d="M47.5995 53.3199C51.0015 53.3199 53.7595 52.3349 53.7595 51.1199C53.7595 49.9049 51.0015 48.9199 47.5995 48.9199C44.1974 48.9199 41.4395 49.9049 41.4395 51.1199C41.4395 52.3349 44.1974 53.3199 47.5995 53.3199Z" stroke="#0499DD" stroke-width="0.6" stroke-miterlimit="10" stroke-linecap="round" stroke-linejoin="round"/>
<path d="M41.4395 51.5601C41.4395 51.9613 41.4395 53.7988 41.4395 54.2001C41.4395 55.4153 44.1965 56.4001 47.5995 56.4001C51.0024 56.4001 53.7595 55.4153 53.7595 54.2001C53.7595 53.7988 53.7595 51.9613 53.7595 51.5601" stroke="#0499DD" stroke-width="0.6" stroke-miterlimit="10" stroke-linecap="round" stroke-linejoin="round"/>
<path d="M41.4395 54.6399C41.4395 55.0412 41.4395 56.8786 41.4395 57.2799C41.4395 58.4952 44.1965 59.4799 47.5995 59.4799C51.0024 59.4799 53.7595 58.4952 53.7595 57.2799C53.7595 56.8786 53.7595 55.0412 53.7595 54.6399" stroke="#0499DD" stroke-width="0.6" stroke-miterlimit="10" stroke-linecap="round" stroke-linejoin="round"/>
<path d="M41.4395 57.72C41.4395 58.1213 41.4395 59.9587 41.4395 60.36C41.4395 61.5753 44.1965 62.56 47.5995 62.56C51.0024 62.56 53.7595 61.5753 53.7595 60.36C53.7595 59.9587 53.7595 58.1213 53.7595 57.72" stroke="#0499DD" stroke-width="0.6" stroke-miterlimit="10" stroke-linecap="round" stroke-linejoin="round"/>
<path d="M53.864 83.782V87.142H52.562V85H44.498L44.484 87.142H43.182L43.196 83.782H43.672C44.288 83.7447 44.722 83.2593 44.974 82.326C45.226 81.3833 45.38 80.058 45.436 78.35L45.534 75.2H52.422V83.782H53.864ZM46.668 78.476C46.6213 79.8573 46.5093 81.0007 46.332 81.906C46.164 82.8113 45.8887 83.4367 45.506 83.782H51.036V76.418H46.738L46.668 78.476ZM62.0959 81.332C62.0959 81.4347 62.0866 81.57 62.0679 81.738H56.0479C56.1319 82.3913 56.4166 82.9187 56.9019 83.32C57.3966 83.712 58.0079 83.908 58.7359 83.908C59.6226 83.908 60.3366 83.6093 60.8779 83.012L61.6199 83.88C61.2839 84.272 60.8639 84.5707 60.3599 84.776C59.8652 84.9813 59.3099 85.084 58.6939 85.084C57.9099 85.084 57.2146 84.9253 56.6079 84.608C56.0012 84.2813 55.5299 83.8287 55.1939 83.25C54.8672 82.6713 54.7039 82.018 54.7039 81.29C54.7039 80.5713 54.8626 79.9227 55.1799 79.344C55.5066 78.7653 55.9499 78.3173 56.5099 78C57.0792 77.6733 57.7186 77.51 58.4279 77.51C59.1372 77.51 59.7672 77.6733 60.3179 78C60.8779 78.3173 61.3119 78.7653 61.6199 79.344C61.9372 79.9227 62.0959 80.5853 62.0959 81.332ZM58.4279 78.644C57.7839 78.644 57.2426 78.84 56.8039 79.232C56.3746 79.624 56.1226 80.1373 56.0479 80.772H60.8079C60.7332 80.1467 60.4766 79.638 60.0379 79.246C59.6086 78.8447 59.0719 78.644 58.4279 78.644ZM69.3965 78.756H66.6805V85H65.3365V78.756H62.6205V77.58H69.3965V78.756ZM73.6766 85.084C72.9206 85.084 72.244 84.9207 71.6466 84.594C71.0586 84.2673 70.5966 83.8193 70.2606 83.25C69.9246 82.6713 69.7566 82.018 69.7566 81.29C69.7566 80.562 69.9246 79.9133 70.2606 79.344C70.5966 78.7653 71.0586 78.3173 71.6466 78C72.244 77.6733 72.9206 77.51 73.6766 77.51C74.3486 77.51 74.946 77.6453 75.4686 77.916C76.0006 78.1867 76.4113 78.5787 76.7006 79.092L75.6786 79.75C75.4453 79.3953 75.156 79.1293 74.8106 78.952C74.4653 78.7747 74.0826 78.686 73.6626 78.686C73.1773 78.686 72.7386 78.7933 72.3466 79.008C71.964 79.2227 71.6606 79.5307 71.4366 79.932C71.222 80.324 71.1146 80.7767 71.1146 81.29C71.1146 81.8127 71.222 82.2747 71.4366 82.676C71.6606 83.068 71.964 83.3713 72.3466 83.586C72.7386 83.8007 73.1773 83.908 73.6626 83.908C74.0826 83.908 74.4653 83.8193 74.8106 83.642C75.156 83.4647 75.4453 83.1987 75.6786 82.844L76.7006 83.488C76.4113 84.0013 76.0006 84.398 75.4686 84.678C74.946 84.9487 74.3486 85.084 73.6766 85.084ZM81.3247 81.864H79.7847V85H78.4407V77.58H79.7847V80.716H81.3527L83.7607 77.58H85.2027L82.3887 81.15L85.3987 85H83.8167L81.3247 81.864ZM86.8079 77.58H88.1519V82.984L92.7019 77.58H93.9199V85H92.5759V79.596L88.0399 85H86.8079V77.58ZM96.5286 77.58H97.8726V82.984L102.423 77.58H103.641V85H102.297V79.596L97.7606 85H96.5286V77.58ZM100.001 76.614C99.3099 76.614 98.7732 76.4507 98.3906 76.124C98.0079 75.788 97.8119 75.3073 97.8026 74.682H98.7126C98.7219 75.0273 98.8386 75.3073 99.0626 75.522C99.2959 75.7273 99.6039 75.83 99.9866 75.83C100.369 75.83 100.677 75.7273 100.911 75.522C101.144 75.3073 101.265 75.0273 101.275 74.682H102.213C102.203 75.3073 102.003 75.788 101.611 76.124C101.219 76.4507 100.682 76.614 100.001 76.614ZM113.789 77.832C114.48 77.832 115.096 77.986 115.637 78.294C116.178 78.602 116.598 79.0313 116.897 79.582C117.205 80.1233 117.359 80.744 117.359 81.444C117.359 82.1627 117.196 82.802 116.869 83.362C116.552 83.9127 116.099 84.342 115.511 84.65C114.932 84.958 114.27 85.112 113.523 85.112C112.263 85.112 111.288 84.6827 110.597 83.824C109.916 82.956 109.575 81.738 109.575 80.17C109.575 78.6487 109.888 77.4587 110.513 76.6C111.138 75.732 112.095 75.158 113.383 74.878L116.771 74.122L116.967 75.354L113.845 76.026C112.874 76.2407 112.151 76.6047 111.675 77.118C111.199 77.6313 110.928 78.3687 110.863 79.33C111.18 78.854 111.591 78.4853 112.095 78.224C112.599 77.9627 113.164 77.832 113.789 77.832ZM113.551 83.992C114.027 83.992 114.447 83.8847 114.811 83.67C115.184 83.4553 115.474 83.1613 115.679 82.788C115.884 82.4053 115.987 81.9713 115.987 81.486C115.987 80.7487 115.763 80.156 115.315 79.708C114.867 79.26 114.279 79.036 113.551 79.036C112.823 79.036 112.23 79.26 111.773 79.708C111.325 80.156 111.101 80.7487 111.101 81.486C111.101 81.9713 111.204 82.4053 111.409 82.788C111.624 83.1613 111.918 83.4553 112.291 83.67C112.664 83.8847 113.084 83.992 113.551 83.992ZM119.279 77.58H120.623V82.984L125.173 77.58H126.391V85H125.047V79.596L120.511 85H119.279V77.58ZM135.369 77.58V85H134.025V78.756H130.833L130.749 80.408C130.703 81.4067 130.614 82.242 130.483 82.914C130.353 83.5767 130.138 84.1087 129.839 84.51C129.541 84.9113 129.125 85.112 128.593 85.112C128.351 85.112 128.075 85.07 127.767 84.986L127.851 83.852C127.973 83.88 128.085 83.894 128.187 83.894C128.561 83.894 128.841 83.7307 129.027 83.404C129.214 83.0773 129.335 82.69 129.391 82.242C129.447 81.794 129.499 81.1547 129.545 80.324L129.671 77.58H135.369ZM144.674 81.332C144.674 81.4347 144.665 81.57 144.646 81.738H138.626C138.71 82.3913 138.995 82.9187 139.48 83.32C139.975 83.712 140.586 83.908 141.314 83.908C142.201 83.908 142.915 83.6093 143.456 83.012L144.198 83.88C143.862 84.272 143.442 84.5707 142.938 84.776C142.443 84.9813 141.888 85.084 141.272 85.084C140.488 85.084 139.793 84.9253 139.186 84.608C138.579 84.2813 138.108 83.8287 137.772 83.25C137.445 82.6713 137.282 82.018 137.282 81.29C137.282 80.5713 137.441 79.9227 137.758 79.344C138.085 78.7653 138.528 78.3173 139.088 78C139.657 77.6733 140.297 77.51 141.006 77.51C141.715 77.51 142.345 77.6733 142.896 78C143.456 78.3173 143.89 78.7653 144.198 79.344C144.515 79.9227 144.674 80.5853 144.674 81.332ZM141.006 78.644C140.362 78.644 139.821 78.84 139.382 79.232C138.953 79.624 138.701 80.1373 138.626 80.772H143.386C143.311 80.1467 143.055 79.638 142.616 79.246C142.187 78.8447 141.65 78.644 141.006 78.644ZM151.975 78.756H149.259V85H147.915V78.756H145.199V77.58H151.975V78.756Z" fill="#282828"/>
<defs>
<filter id="filter0_bd_71_2388" x="-2" y="-3" width="200" height="140" filterUnits="userSpaceOnUse" color-interpolation-filters="sRGB">
<feFlood flood-opacity="0" result="BackgroundImageFix"/>
<feGaussianBlur in="BackgroundImage" stdDeviation="10"/>
<feComposite in2="SourceAlpha" operator="in" result="effect1_backgroundBlur_71_2388"/>
<feColorMatrix in="SourceAlpha" type="matrix" values="0 0 0 0 0 0 0 0 0 0 0 0 0 0 0 0 0 0 127 0" result="hardAlpha"/>
<feOffset/>
<feGaussianBlur stdDeviation="7.5"/>
<feComposite in2="hardAlpha" operator="out"/>
<feColorMatrix type="matrix" values="0 0 0 0 0 0 0 0 0 0 0 0 0 0 0 0 0 0 0.1 0"/>
<feBlend mode="normal" in2="effect1_backgroundBlur_71_2388" result="effect2_dropShadow_71_2388"/>
<feBlend mode="normal" in="SourceGraphic" in2="effect2_dropShadow_71_2388" result="shape"/>
</filter>
</defs>
</svg>
