<svg width="193" height="132" viewBox="0 0 193 132" fill="none" xmlns="http://www.w3.org/2000/svg">
<circle cx="28.5" cy="28.5" r="28.5" fill="#FFC700"/>
<g filter="url(#filter0_bd_55_139)">
<rect x="18" y="17" width="160" height="100" rx="10" fill="white" fill-opacity="0.2" shape-rendering="crispEdges"/>
</g>
<path d="M83.936 71.112C82.9467 71.112 82.0553 70.8973 81.262 70.468C80.4687 70.0293 79.8433 69.4273 79.386 68.662C78.938 67.8967 78.714 67.0427 78.714 66.1C78.714 65.1573 78.938 64.3033 79.386 63.538C79.8433 62.7727 80.4687 62.1753 81.262 61.746C82.0553 61.3073 82.9467 61.088 83.936 61.088C84.916 61.088 85.8027 61.3073 86.596 61.746C87.3893 62.1753 88.01 62.7727 88.458 63.538C88.906 64.294 89.13 65.148 89.13 66.1C89.13 67.052 88.906 67.9107 88.458 68.676C88.01 69.432 87.3893 70.0293 86.596 70.468C85.8027 70.8973 84.916 71.112 83.936 71.112ZM83.936 69.866C84.6547 69.866 85.2987 69.7027 85.868 69.376C86.4467 69.0493 86.8993 68.6013 87.226 68.032C87.562 67.4533 87.73 66.8093 87.73 66.1C87.73 65.3907 87.562 64.7513 87.226 64.182C86.8993 63.6033 86.4467 63.1507 85.868 62.824C85.2987 62.4973 84.6547 62.334 83.936 62.334C83.2173 62.334 82.564 62.4973 81.976 62.824C81.3973 63.1507 80.94 63.6033 80.604 64.182C80.2773 64.7513 80.114 65.3907 80.114 66.1C80.114 66.8093 80.2773 67.4533 80.604 68.032C80.94 68.6013 81.3973 69.0493 81.976 69.376C82.564 69.7027 83.2173 69.866 83.936 69.866ZM94.9492 63.832C95.6399 63.832 96.2559 63.986 96.7972 64.294C97.3385 64.602 97.7585 65.0313 98.0572 65.582C98.3652 66.1233 98.5192 66.744 98.5192 67.444C98.5192 68.1627 98.3559 68.802 98.0292 69.362C97.7119 69.9127 97.2592 70.342 96.6712 70.65C96.0925 70.958 95.4299 71.112 94.6832 71.112C93.4232 71.112 92.4479 70.6827 91.7572 69.824C91.0759 68.956 90.7352 67.738 90.7352 66.17C90.7352 64.6487 91.0479 63.4587 91.6732 62.6C92.2985 61.732 93.2552 61.158 94.5432 60.878L97.9312 60.122L98.1272 61.354L95.0052 62.026C94.0345 62.2407 93.3112 62.6047 92.8352 63.118C92.3592 63.6313 92.0885 64.3687 92.0232 65.33C92.3405 64.854 92.7512 64.4853 93.2552 64.224C93.7592 63.9627 94.3239 63.832 94.9492 63.832ZM94.7112 69.992C95.1872 69.992 95.6072 69.8847 95.9712 69.67C96.3445 69.4553 96.6339 69.1613 96.8392 68.788C97.0445 68.4053 97.1472 67.9713 97.1472 67.486C97.1472 66.7487 96.9232 66.156 96.4752 65.708C96.0272 65.26 95.4392 65.036 94.7112 65.036C93.9832 65.036 93.3905 65.26 92.9332 65.708C92.4852 66.156 92.2612 66.7487 92.2612 67.486C92.2612 67.9713 92.3639 68.4053 92.5692 68.788C92.7839 69.1613 93.0779 69.4553 93.4512 69.67C93.8245 69.8847 94.2445 69.992 94.7112 69.992ZM107.145 67.332C107.145 67.4347 107.135 67.57 107.117 67.738H101.097C101.181 68.3913 101.465 68.9187 101.951 69.32C102.445 69.712 103.057 69.908 103.785 69.908C104.671 69.908 105.385 69.6093 105.927 69.012L106.669 69.88C106.333 70.272 105.913 70.5707 105.409 70.776C104.914 70.9813 104.359 71.084 103.743 71.084C102.959 71.084 102.263 70.9253 101.657 70.608C101.05 70.2813 100.579 69.8287 100.243 69.25C99.9161 68.6713 99.7527 68.018 99.7527 67.29C99.7527 66.5713 99.9114 65.9227 100.229 65.344C100.555 64.7653 100.999 64.3173 101.559 64C102.128 63.6733 102.767 63.51 103.477 63.51C104.186 63.51 104.816 63.6733 105.367 64C105.927 64.3173 106.361 64.7653 106.669 65.344C106.986 65.9227 107.145 66.5853 107.145 67.332ZM103.477 64.644C102.833 64.644 102.291 64.84 101.853 65.232C101.423 65.624 101.171 66.1373 101.097 66.772H105.857C105.782 66.1467 105.525 65.638 105.087 65.246C104.657 64.8447 104.121 64.644 103.477 64.644ZM116.653 69.824V72.722H115.393V71H109.191V72.722H107.917V69.824H108.309C108.785 69.796 109.111 69.46 109.289 68.816C109.466 68.172 109.587 67.262 109.653 66.086L109.765 63.58H115.519V69.824H116.653ZM110.885 66.184C110.847 67.1173 110.768 67.892 110.647 68.508C110.535 69.1147 110.325 69.5533 110.017 69.824H114.175V64.756H110.955L110.885 66.184Z" fill="#282828"/>
<defs>
<filter id="filter0_bd_55_139" x="-2" y="-3" width="200" height="140" filterUnits="userSpaceOnUse" color-interpolation-filters="sRGB">
<feFlood flood-opacity="0" result="BackgroundImageFix"/>
<feGaussianBlur in="BackgroundImage" stdDeviation="10"/>
<feComposite in2="SourceAlpha" operator="in" result="effect1_backgroundBlur_55_139"/>
<feColorMatrix in="SourceAlpha" type="matrix" values="0 0 0 0 0 0 0 0 0 0 0 0 0 0 0 0 0 0 127 0" result="hardAlpha"/>
<feOffset/>
<feGaussianBlur stdDeviation="7.5"/>
<feComposite in2="hardAlpha" operator="out"/>
<feColorMatrix type="matrix" values="0 0 0 0 0 0 0 0 0 0 0 0 0 0 0 0 0 0 0.1 0"/>
<feBlend mode="normal" in2="effect1_backgroundBlur_55_139" result="effect2_dropShadow_55_139"/>
<feBlend mode="normal" in="SourceGraphic" in2="effect2_dropShadow_55_139" result="shape"/>
</filter>
</defs>
</svg>
