<svg width="213" height="132" viewBox="0 0 213 132" fill="none" xmlns="http://www.w3.org/2000/svg">
<circle cx="28.5" cy="28.5" r="28.5" fill="#FFC700"/>
<g filter="url(#filter0_bd_55_166)">
<rect x="18" y="17" width="180" height="100" rx="10" fill="white" fill-opacity="0.2" shape-rendering="crispEdges"/>
</g>
<path d="M104.488 60.832V64H91.792V61.48L98.272 55.36C98.96 54.704 99.424 54.144 99.664 53.68C99.904 53.2 100.024 52.728 100.024 52.264C100.024 51.592 99.792 51.08 99.328 50.728C98.88 50.36 98.216 50.176 97.336 50.176C96.6 50.176 95.936 50.32 95.344 50.608C94.752 50.88 94.256 51.296 93.856 51.856L91.024 50.032C91.68 49.056 92.584 48.296 93.736 47.752C94.888 47.192 96.208 46.912 97.696 46.912C98.944 46.912 100.032 47.12 100.96 47.536C101.904 47.936 102.632 48.512 103.144 49.264C103.672 50 103.936 50.872 103.936 51.88C103.936 52.792 103.744 53.648 103.36 54.448C102.976 55.248 102.232 56.16 101.128 57.184L97.264 60.832H104.488ZM113.245 64.288C111.853 64.288 110.613 63.944 109.525 63.256C108.437 62.568 107.581 61.576 106.957 60.28C106.349 58.968 106.045 57.408 106.045 55.6C106.045 53.792 106.349 52.24 106.957 50.944C107.581 49.632 108.437 48.632 109.525 47.944C110.613 47.256 111.853 46.912 113.245 46.912C114.637 46.912 115.877 47.256 116.965 47.944C118.053 48.632 118.901 49.632 119.509 50.944C120.133 52.24 120.445 53.792 120.445 55.6C120.445 57.408 120.133 58.968 119.509 60.28C118.901 61.576 118.053 62.568 116.965 63.256C115.877 63.944 114.637 64.288 113.245 64.288ZM113.245 61C114.269 61 115.069 60.56 115.645 59.68C116.237 58.8 116.533 57.44 116.533 55.6C116.533 53.76 116.237 52.4 115.645 51.52C115.069 50.64 114.269 50.2 113.245 50.2C112.237 50.2 111.437 50.64 110.845 51.52C110.269 52.4 109.981 53.76 109.981 55.6C109.981 57.44 110.269 58.8 110.845 59.68C111.437 60.56 112.237 61 113.245 61ZM129.534 64.288C128.142 64.288 126.902 63.944 125.814 63.256C124.726 62.568 123.87 61.576 123.246 60.28C122.638 58.968 122.334 57.408 122.334 55.6C122.334 53.792 122.638 52.24 123.246 50.944C123.87 49.632 124.726 48.632 125.814 47.944C126.902 47.256 128.142 46.912 129.534 46.912C130.926 46.912 132.166 47.256 133.254 47.944C134.342 48.632 135.19 49.632 135.798 50.944C136.422 52.24 136.734 53.792 136.734 55.6C136.734 57.408 136.422 58.968 135.798 60.28C135.19 61.576 134.342 62.568 133.254 63.256C132.166 63.944 130.926 64.288 129.534 64.288ZM129.534 61C130.558 61 131.358 60.56 131.934 59.68C132.526 58.8 132.822 57.44 132.822 55.6C132.822 53.76 132.526 52.4 131.934 51.52C131.358 50.64 130.558 50.2 129.534 50.2C128.526 50.2 127.726 50.64 127.134 51.52C126.558 52.4 126.27 53.76 126.27 55.6C126.27 57.44 126.558 58.8 127.134 59.68C127.726 60.56 128.526 61 129.534 61ZM151.444 58.504V59.848H156.628V61.84H151.444V64H147.532V61.84H145.204V59.848H147.532V47.2H154.804C157.092 47.2 158.876 47.68 160.156 48.64C161.452 49.6 162.1 51.008 162.1 52.864C162.1 54.704 161.452 56.104 160.156 57.064C158.876 58.024 157.092 58.504 154.804 58.504H151.444ZM158.164 52.888C158.164 52.072 157.868 51.448 157.276 51.016C156.7 50.584 155.868 50.368 154.78 50.368H151.444V55.456H154.78C155.868 55.456 156.7 55.24 157.276 54.808C157.868 54.36 158.164 53.72 158.164 52.888Z" fill="#0499DD"/>
<path d="M70.4002 49.8399C73.8023 49.8399 76.5602 48.855 76.5602 47.6399C76.5602 46.4249 73.8023 45.4399 70.4002 45.4399C66.9982 45.4399 64.2402 46.4249 64.2402 47.6399C64.2402 48.855 66.9982 49.8399 70.4002 49.8399Z" stroke="#0499DD" stroke-width="0.6" stroke-miterlimit="10" stroke-linecap="round" stroke-linejoin="round"/>
<path d="M64.2402 48.0801C64.2402 48.4814 64.2402 50.3188 64.2402 50.7201C64.2402 51.9349 66.9973 52.9201 70.4002 52.9201C73.8032 52.9201 76.5602 51.9349 76.5602 50.7201C76.5602 50.3188 76.5602 48.4814 76.5602 48.0801" stroke="#0499DD" stroke-width="0.6" stroke-miterlimit="10" stroke-linecap="round" stroke-linejoin="round"/>
<path d="M67.5625 55.7531C68.4117 55.9106 69.3771 55.9999 70.4005 55.9999C73.8035 55.9999 76.5605 55.0148 76.5605 53.7999C76.5605 53.3986 76.5605 51.5612 76.5605 51.1599" stroke="#0499DD" stroke-width="0.6" stroke-miterlimit="10" stroke-linecap="round" stroke-linejoin="round"/>
<path d="M64.2402 51.1599C64.2402 51.5612 64.2402 53.0387 64.2402 53.0387" stroke="#0499DD" stroke-width="0.6" stroke-miterlimit="10" stroke-linecap="round" stroke-linejoin="round"/>
<path d="M67.7715 58.8701C68.5688 59.0047 69.4598 59.08 70.4005 59.08C73.8034 59.08 76.5605 58.0953 76.5605 56.88C76.5605 56.4787 76.5605 54.6413 76.5605 54.24" stroke="#0499DD" stroke-width="0.6" stroke-miterlimit="10" stroke-linecap="round" stroke-linejoin="round"/>
<path d="M67.7373 61.9445C68.5429 62.0826 69.4463 62.1601 70.4002 62.1601C73.8031 62.1601 76.5602 61.1753 76.5602 59.9601C76.5602 59.5588 76.5602 57.7213 76.5602 57.3201" stroke="#0499DD" stroke-width="0.6" stroke-miterlimit="10" stroke-linecap="round" stroke-linejoin="round"/>
<path d="M61.5995 57.3199C65.0015 57.3199 67.7595 56.3349 67.7595 55.1199C67.7595 53.9049 65.0015 52.9199 61.5995 52.9199C58.1974 52.9199 55.4395 53.9049 55.4395 55.1199C55.4395 56.3349 58.1974 57.3199 61.5995 57.3199Z" stroke="#0499DD" stroke-width="0.6" stroke-miterlimit="10" stroke-linecap="round" stroke-linejoin="round"/>
<path d="M55.4395 55.5601C55.4395 55.9613 55.4395 57.7988 55.4395 58.2001C55.4395 59.4153 58.1965 60.4001 61.5995 60.4001C65.0024 60.4001 67.7595 59.4153 67.7595 58.2001C67.7595 57.7988 67.7595 55.9613 67.7595 55.5601" stroke="#0499DD" stroke-width="0.6" stroke-miterlimit="10" stroke-linecap="round" stroke-linejoin="round"/>
<path d="M55.4395 58.6399C55.4395 59.0412 55.4395 60.8786 55.4395 61.2799C55.4395 62.4952 58.1965 63.4799 61.5995 63.4799C65.0024 63.4799 67.7595 62.4952 67.7595 61.2799C67.7595 60.8786 67.7595 59.0412 67.7595 58.6399" stroke="#0499DD" stroke-width="0.6" stroke-miterlimit="10" stroke-linecap="round" stroke-linejoin="round"/>
<path d="M55.4395 61.72C55.4395 62.1213 55.4395 63.9587 55.4395 64.36C55.4395 65.5753 58.1965 66.56 61.5995 66.56C65.0024 66.56 67.7595 65.5753 67.7595 64.36C67.7595 63.9587 67.7595 62.1213 67.7595 61.72" stroke="#0499DD" stroke-width="0.6" stroke-miterlimit="10" stroke-linecap="round" stroke-linejoin="round"/>
<path d="M45.612 89L45.598 81.86L42.056 87.81H41.412L37.87 81.902V89H36.526V79.2H37.674L41.762 86.088L45.794 79.2H46.942L46.956 89H45.612ZM52.9605 89.084C52.2231 89.084 51.5605 88.9207 50.9725 88.594C50.3845 88.2673 49.9225 87.8193 49.5865 87.25C49.2598 86.6713 49.0965 86.018 49.0965 85.29C49.0965 84.562 49.2598 83.9133 49.5865 83.344C49.9225 82.7653 50.3845 82.3173 50.9725 82C51.5605 81.6733 52.2231 81.51 52.9605 81.51C53.6978 81.51 54.3558 81.6733 54.9345 82C55.5225 82.3173 55.9798 82.7653 56.3065 83.344C56.6425 83.9133 56.8105 84.562 56.8105 85.29C56.8105 86.018 56.6425 86.6713 56.3065 87.25C55.9798 87.8193 55.5225 88.2673 54.9345 88.594C54.3558 88.9207 53.6978 89.084 52.9605 89.084ZM52.9605 87.908C53.4365 87.908 53.8611 87.8007 54.2345 87.586C54.6171 87.362 54.9158 87.054 55.1305 86.662C55.3451 86.2607 55.4525 85.8033 55.4525 85.29C55.4525 84.7767 55.3451 84.324 55.1305 83.932C54.9158 83.5307 54.6171 83.2227 54.2345 83.008C53.8611 82.7933 53.4365 82.686 52.9605 82.686C52.4845 82.686 52.0551 82.7933 51.6725 83.008C51.2991 83.2227 51.0005 83.5307 50.7765 83.932C50.5618 84.324 50.4545 84.7767 50.4545 85.29C50.4545 85.8033 50.5618 86.2607 50.7765 86.662C51.0005 87.054 51.2991 87.362 51.6725 87.586C52.0551 87.8007 52.4845 87.908 52.9605 87.908ZM65.0665 81.58V89H63.7225V82.756H60.5305L60.4465 84.408C60.3999 85.4067 60.3112 86.242 60.1805 86.914C60.0499 87.5767 59.8352 88.1087 59.5365 88.51C59.2379 88.9113 58.8225 89.112 58.2905 89.112C58.0479 89.112 57.7725 89.07 57.4645 88.986L57.5485 87.852C57.6699 87.88 57.7819 87.894 57.8845 87.894C58.2579 87.894 58.5379 87.7307 58.7245 87.404C58.9112 87.0773 59.0325 86.69 59.0885 86.242C59.1445 85.794 59.1959 85.1547 59.2425 84.324L59.3685 81.58H65.0665ZM70.8433 89.084C70.1059 89.084 69.4433 88.9207 68.8553 88.594C68.2673 88.2673 67.8053 87.8193 67.4693 87.25C67.1426 86.6713 66.9793 86.018 66.9793 85.29C66.9793 84.562 67.1426 83.9133 67.4693 83.344C67.8053 82.7653 68.2673 82.3173 68.8553 82C69.4433 81.6733 70.1059 81.51 70.8433 81.51C71.5806 81.51 72.2386 81.6733 72.8173 82C73.4053 82.3173 73.8626 82.7653 74.1893 83.344C74.5253 83.9133 74.6933 84.562 74.6933 85.29C74.6933 86.018 74.5253 86.6713 74.1893 87.25C73.8626 87.8193 73.4053 88.2673 72.8173 88.594C72.2386 88.9207 71.5806 89.084 70.8433 89.084ZM70.8433 87.908C71.3193 87.908 71.7439 87.8007 72.1173 87.586C72.4999 87.362 72.7986 87.054 73.0133 86.662C73.2279 86.2607 73.3353 85.8033 73.3353 85.29C73.3353 84.7767 73.2279 84.324 73.0133 83.932C72.7986 83.5307 72.4999 83.2227 72.1173 83.008C71.7439 82.7933 71.3193 82.686 70.8433 82.686C70.3673 82.686 69.9379 82.7933 69.5553 83.008C69.1819 83.2227 68.8833 83.5307 68.6593 83.932C68.4446 84.324 68.3373 84.7767 68.3373 85.29C68.3373 85.8033 68.4446 86.2607 68.6593 86.662C68.8833 87.054 69.1819 87.362 69.5553 87.586C69.9379 87.8007 70.3673 87.908 70.8433 87.908ZM82.556 81.58V89H81.212V86.004C80.4094 86.3773 79.6114 86.564 78.818 86.564C77.894 86.564 77.18 86.3493 76.676 85.92C76.172 85.4907 75.92 84.8467 75.92 83.988V81.58H77.264V83.904C77.264 84.4173 77.4227 84.8047 77.74 85.066C78.0667 85.3273 78.5194 85.458 79.098 85.458C79.7514 85.458 80.456 85.2947 81.212 84.968V81.58H82.556ZM85.1653 81.58H86.5093V84.73H90.7373V81.58H92.0813V89H90.7373V85.892H86.5093V89H85.1653V81.58ZM98.0406 84.1C98.9739 84.1093 99.6879 84.324 100.183 84.744C100.677 85.164 100.925 85.7567 100.925 86.522C100.925 87.3247 100.654 87.9453 100.113 88.384C99.5806 88.8133 98.8152 89.0233 97.8166 89.014L94.6946 89V81.58H96.0386V84.086L98.0406 84.1ZM102.031 81.58H103.375V89H102.031V81.58ZM97.7186 87.992C98.3252 88.0013 98.7826 87.88 99.0906 87.628C99.4079 87.376 99.5666 87.0027 99.5666 86.508C99.5666 86.0227 99.4126 85.668 99.1046 85.444C98.7966 85.22 98.3346 85.1033 97.7186 85.094L96.0386 85.066V87.978L97.7186 87.992ZM105.988 81.58H107.332V86.984L111.882 81.58H113.1V89H111.756V83.596L107.22 89H105.988V81.58ZM109.46 80.614C108.769 80.614 108.232 80.4507 107.85 80.124C107.467 79.788 107.271 79.3073 107.262 78.682H108.172C108.181 79.0273 108.298 79.3073 108.522 79.522C108.755 79.7273 109.063 79.83 109.446 79.83C109.828 79.83 110.136 79.7273 110.37 79.522C110.603 79.3073 110.724 79.0273 110.734 78.682H111.672C111.662 79.3073 111.462 79.788 111.07 80.124C110.678 80.4507 110.141 80.614 109.46 80.614ZM124.522 85.15C125.483 85.3927 125.964 85.9947 125.964 86.956C125.964 87.6093 125.717 88.1133 125.222 88.468C124.737 88.8227 124.009 89 123.038 89H119.468V81.58H122.912C123.789 81.58 124.475 81.748 124.97 82.084C125.465 82.4107 125.712 82.8773 125.712 83.484C125.712 83.876 125.605 84.2167 125.39 84.506C125.185 84.786 124.895 85.0007 124.522 85.15ZM120.784 84.772H122.8C123.313 84.772 123.701 84.6787 123.962 84.492C124.233 84.3053 124.368 84.0347 124.368 83.68C124.368 82.9707 123.845 82.616 122.8 82.616H120.784V84.772ZM122.94 87.964C123.5 87.964 123.92 87.8753 124.2 87.698C124.48 87.5207 124.62 87.2453 124.62 86.872C124.62 86.4893 124.489 86.2047 124.228 86.018C123.976 85.8313 123.575 85.738 123.024 85.738H120.784V87.964H122.94ZM131.246 89.084C130.508 89.084 129.846 88.9207 129.258 88.594C128.67 88.2673 128.208 87.8193 127.872 87.25C127.545 86.6713 127.382 86.018 127.382 85.29C127.382 84.562 127.545 83.9133 127.872 83.344C128.208 82.7653 128.67 82.3173 129.258 82C129.846 81.6733 130.508 81.51 131.246 81.51C131.983 81.51 132.641 81.6733 133.22 82C133.808 82.3173 134.265 82.7653 134.592 83.344C134.928 83.9133 135.096 84.562 135.096 85.29C135.096 86.018 134.928 86.6713 134.592 87.25C134.265 87.8193 133.808 88.2673 133.22 88.594C132.641 88.9207 131.983 89.084 131.246 89.084ZM131.246 87.908C131.722 87.908 132.146 87.8007 132.52 87.586C132.902 87.362 133.201 87.054 133.416 86.662C133.63 86.2607 133.738 85.8033 133.738 85.29C133.738 84.7767 133.63 84.324 133.416 83.932C133.201 83.5307 132.902 83.2227 132.52 83.008C132.146 82.7933 131.722 82.686 131.246 82.686C130.77 82.686 130.34 82.7933 129.958 83.008C129.584 83.2227 129.286 83.5307 129.062 83.932C128.847 84.324 128.74 84.7767 128.74 85.29C128.74 85.8033 128.847 86.2607 129.062 86.662C129.286 87.054 129.584 87.362 129.958 87.586C130.34 87.8007 130.77 87.908 131.246 87.908ZM144.528 87.824V90.722H143.268V89H137.066V90.722H135.792V87.824H136.184C136.66 87.796 136.986 87.46 137.164 86.816C137.341 86.172 137.462 85.262 137.528 84.086L137.64 81.58H143.394V87.824H144.528ZM138.76 84.184C138.722 85.1173 138.643 85.892 138.522 86.508C138.41 87.1147 138.2 87.5533 137.892 87.824H142.05V82.756H138.83L138.76 84.184ZM149.457 89.084C148.719 89.084 148.057 88.9207 147.469 88.594C146.881 88.2673 146.419 87.8193 146.083 87.25C145.756 86.6713 145.593 86.018 145.593 85.29C145.593 84.562 145.756 83.9133 146.083 83.344C146.419 82.7653 146.881 82.3173 147.469 82C148.057 81.6733 148.719 81.51 149.457 81.51C150.194 81.51 150.852 81.6733 151.431 82C152.019 82.3173 152.476 82.7653 152.803 83.344C153.139 83.9133 153.307 84.562 153.307 85.29C153.307 86.018 153.139 86.6713 152.803 87.25C152.476 87.8193 152.019 88.2673 151.431 88.594C150.852 88.9207 150.194 89.084 149.457 89.084ZM149.457 87.908C149.933 87.908 150.357 87.8007 150.731 87.586C151.113 87.362 151.412 87.054 151.627 86.662C151.841 86.2607 151.949 85.8033 151.949 85.29C151.949 84.7767 151.841 84.324 151.627 83.932C151.412 83.5307 151.113 83.2227 150.731 83.008C150.357 82.7933 149.933 82.686 149.457 82.686C148.981 82.686 148.551 82.7933 148.169 83.008C147.795 83.2227 147.497 83.5307 147.273 83.932C147.058 84.324 146.951 84.7767 146.951 85.29C146.951 85.8033 147.058 86.2607 147.273 86.662C147.497 87.054 147.795 87.362 148.169 87.586C148.551 87.8007 148.981 87.908 149.457 87.908ZM162.121 81.58V89H160.777V82.756H156.591V89H155.247V81.58H162.121ZM167.368 81.51C168.395 81.51 169.179 81.762 169.72 82.266C170.271 82.77 170.546 83.5213 170.546 84.52V89H169.272V88.02C169.048 88.3653 168.726 88.6313 168.306 88.818C167.895 88.9953 167.405 89.084 166.836 89.084C166.005 89.084 165.338 88.8833 164.834 88.482C164.339 88.0807 164.092 87.5533 164.092 86.9C164.092 86.2467 164.33 85.724 164.806 85.332C165.282 84.9307 166.038 84.73 167.074 84.73H169.202V84.464C169.202 83.8853 169.034 83.442 168.698 83.134C168.362 82.826 167.867 82.672 167.214 82.672C166.775 82.672 166.346 82.7467 165.926 82.896C165.506 83.036 165.151 83.2273 164.862 83.47L164.302 82.462C164.685 82.154 165.142 81.9207 165.674 81.762C166.206 81.594 166.771 81.51 167.368 81.51ZM167.06 88.048C167.573 88.048 168.017 87.936 168.39 87.712C168.763 87.4787 169.034 87.152 169.202 86.732V85.696H167.13C165.991 85.696 165.422 86.0787 165.422 86.844C165.422 87.2173 165.567 87.5113 165.856 87.726C166.145 87.9407 166.547 88.048 167.06 88.048ZM180.512 87.824V90.722H179.252V89H173.05V90.722H171.776V87.824H172.168C172.644 87.796 172.971 87.46 173.148 86.816C173.325 86.172 173.447 85.262 173.512 84.086L173.624 81.58H179.378V87.824H180.512ZM174.744 84.184C174.707 85.1173 174.627 85.892 174.506 86.508C174.394 87.1147 174.184 87.5533 173.876 87.824H178.034V82.756H174.814L174.744 84.184Z" fill="#282828"/>
<defs>
<filter id="filter0_bd_55_166" x="-2" y="-3" width="220" height="140" filterUnits="userSpaceOnUse" color-interpolation-filters="sRGB">
<feFlood flood-opacity="0" result="BackgroundImageFix"/>
<feGaussianBlur in="BackgroundImage" stdDeviation="10"/>
<feComposite in2="SourceAlpha" operator="in" result="effect1_backgroundBlur_55_166"/>
<feColorMatrix in="SourceAlpha" type="matrix" values="0 0 0 0 0 0 0 0 0 0 0 0 0 0 0 0 0 0 127 0" result="hardAlpha"/>
<feOffset/>
<feGaussianBlur stdDeviation="7.5"/>
<feComposite in2="hardAlpha" operator="out"/>
<feColorMatrix type="matrix" values="0 0 0 0 0 0 0 0 0 0 0 0 0 0 0 0 0 0 0.1 0"/>
<feBlend mode="normal" in2="effect1_backgroundBlur_55_166" result="effect2_dropShadow_55_166"/>
<feBlend mode="normal" in="SourceGraphic" in2="effect2_dropShadow_55_166" result="shape"/>
</filter>
</defs>
</svg>
