<svg width="193" height="132" viewBox="0 0 193 132" fill="none" xmlns="http://www.w3.org/2000/svg">
<circle cx="28.5" cy="28.5" r="28.5" fill="#FFC700"/>
<g filter="url(#filter0_bd_55_187)">
<rect x="18" y="17" width="160" height="100" rx="10" fill="white" fill-opacity="0.2" shape-rendering="crispEdges"/>
</g>
<path d="M94.488 60.832V64H81.792V61.48L88.272 55.36C88.96 54.704 89.424 54.144 89.664 53.68C89.904 53.2 90.024 52.728 90.024 52.264C90.024 51.592 89.792 51.08 89.328 50.728C88.88 50.36 88.216 50.176 87.336 50.176C86.6 50.176 85.936 50.32 85.344 50.608C84.752 50.88 84.256 51.296 83.856 51.856L81.024 50.032C81.68 49.056 82.584 48.296 83.736 47.752C84.888 47.192 86.208 46.912 87.696 46.912C88.944 46.912 90.032 47.12 90.96 47.536C91.904 47.936 92.632 48.512 93.144 49.264C93.672 50 93.936 50.872 93.936 51.88C93.936 52.792 93.744 53.648 93.36 54.448C92.976 55.248 92.232 56.16 91.128 57.184L87.264 60.832H94.488ZM103.245 64.288C101.853 64.288 100.613 63.944 99.5254 63.256C98.4374 62.568 97.5814 61.576 96.9574 60.28C96.3494 58.968 96.0454 57.408 96.0454 55.6C96.0454 53.792 96.3494 52.24 96.9574 50.944C97.5814 49.632 98.4374 48.632 99.5254 47.944C100.613 47.256 101.853 46.912 103.245 46.912C104.637 46.912 105.877 47.256 106.965 47.944C108.053 48.632 108.901 49.632 109.509 50.944C110.133 52.24 110.445 53.792 110.445 55.6C110.445 57.408 110.133 58.968 109.509 60.28C108.901 61.576 108.053 62.568 106.965 63.256C105.877 63.944 104.637 64.288 103.245 64.288ZM103.245 61C104.269 61 105.069 60.56 105.645 59.68C106.237 58.8 106.533 57.44 106.533 55.6C106.533 53.76 106.237 52.4 105.645 51.52C105.069 50.64 104.269 50.2 103.245 50.2C102.237 50.2 101.437 50.64 100.845 51.52C100.269 52.4 99.9814 53.76 99.9814 55.6C99.9814 57.44 100.269 58.8 100.845 59.68C101.437 60.56 102.237 61 103.245 61ZM119.534 64.288C118.142 64.288 116.902 63.944 115.814 63.256C114.726 62.568 113.87 61.576 113.246 60.28C112.638 58.968 112.334 57.408 112.334 55.6C112.334 53.792 112.638 52.24 113.246 50.944C113.87 49.632 114.726 48.632 115.814 47.944C116.902 47.256 118.142 46.912 119.534 46.912C120.926 46.912 122.166 47.256 123.254 47.944C124.342 48.632 125.19 49.632 125.798 50.944C126.422 52.24 126.734 53.792 126.734 55.6C126.734 57.408 126.422 58.968 125.798 60.28C125.19 61.576 124.342 62.568 123.254 63.256C122.166 63.944 120.926 64.288 119.534 64.288ZM119.534 61C120.558 61 121.358 60.56 121.934 59.68C122.526 58.8 122.822 57.44 122.822 55.6C122.822 53.76 122.526 52.4 121.934 51.52C121.358 50.64 120.558 50.2 119.534 50.2C118.526 50.2 117.726 50.64 117.134 51.52C116.558 52.4 116.27 53.76 116.27 55.6C116.27 57.44 116.558 58.8 117.134 59.68C117.726 60.56 118.526 61 119.534 61ZM141.444 58.504V59.848H146.628V61.84H141.444V64H137.532V61.84H135.204V59.848H137.532V47.2H144.804C147.092 47.2 148.876 47.68 150.156 48.64C151.452 49.6 152.1 51.008 152.1 52.864C152.1 54.704 151.452 56.104 150.156 57.064C148.876 58.024 147.092 58.504 144.804 58.504H141.444ZM148.164 52.888C148.164 52.072 147.868 51.448 147.276 51.016C146.7 50.584 145.868 50.368 144.78 50.368H141.444V55.456H144.78C145.868 55.456 146.7 55.24 147.276 54.808C147.868 54.36 148.164 53.72 148.164 52.888Z" fill="#0499DD"/>
<path d="M60.4002 49.8399C63.8023 49.8399 66.5602 48.855 66.5602 47.6399C66.5602 46.4249 63.8023 45.4399 60.4002 45.4399C56.9982 45.4399 54.2402 46.4249 54.2402 47.6399C54.2402 48.855 56.9982 49.8399 60.4002 49.8399Z" stroke="#0499DD" stroke-width="0.6" stroke-miterlimit="10" stroke-linecap="round" stroke-linejoin="round"/>
<path d="M54.2402 48.0801C54.2402 48.4814 54.2402 50.3188 54.2402 50.7201C54.2402 51.9349 56.9973 52.9201 60.4002 52.9201C63.8032 52.9201 66.5602 51.9349 66.5602 50.7201C66.5602 50.3188 66.5602 48.4814 66.5602 48.0801" stroke="#0499DD" stroke-width="0.6" stroke-miterlimit="10" stroke-linecap="round" stroke-linejoin="round"/>
<path d="M57.5625 55.7531C58.4117 55.9106 59.3771 55.9999 60.4005 55.9999C63.8035 55.9999 66.5605 55.0148 66.5605 53.7999C66.5605 53.3986 66.5605 51.5612 66.5605 51.1599" stroke="#0499DD" stroke-width="0.6" stroke-miterlimit="10" stroke-linecap="round" stroke-linejoin="round"/>
<path d="M54.2402 51.1599C54.2402 51.5612 54.2402 53.0387 54.2402 53.0387" stroke="#0499DD" stroke-width="0.6" stroke-miterlimit="10" stroke-linecap="round" stroke-linejoin="round"/>
<path d="M57.7715 58.8701C58.5688 59.0047 59.4598 59.08 60.4005 59.08C63.8034 59.08 66.5605 58.0953 66.5605 56.88C66.5605 56.4787 66.5605 54.6413 66.5605 54.24" stroke="#0499DD" stroke-width="0.6" stroke-miterlimit="10" stroke-linecap="round" stroke-linejoin="round"/>
<path d="M57.7373 61.9445C58.5429 62.0826 59.4463 62.1601 60.4002 62.1601C63.8031 62.1601 66.5602 61.1753 66.5602 59.9601C66.5602 59.5588 66.5602 57.7213 66.5602 57.3201" stroke="#0499DD" stroke-width="0.6" stroke-miterlimit="10" stroke-linecap="round" stroke-linejoin="round"/>
<path d="M51.5995 57.3199C55.0015 57.3199 57.7595 56.3349 57.7595 55.1199C57.7595 53.9049 55.0015 52.9199 51.5995 52.9199C48.1974 52.9199 45.4395 53.9049 45.4395 55.1199C45.4395 56.3349 48.1974 57.3199 51.5995 57.3199Z" stroke="#0499DD" stroke-width="0.6" stroke-miterlimit="10" stroke-linecap="round" stroke-linejoin="round"/>
<path d="M45.4395 55.5601C45.4395 55.9613 45.4395 57.7988 45.4395 58.2001C45.4395 59.4153 48.1965 60.4001 51.5995 60.4001C55.0024 60.4001 57.7595 59.4153 57.7595 58.2001C57.7595 57.7988 57.7595 55.9613 57.7595 55.5601" stroke="#0499DD" stroke-width="0.6" stroke-miterlimit="10" stroke-linecap="round" stroke-linejoin="round"/>
<path d="M45.4395 58.6399C45.4395 59.0412 45.4395 60.8786 45.4395 61.2799C45.4395 62.4952 48.1965 63.4799 51.5995 63.4799C55.0024 63.4799 57.7595 62.4952 57.7595 61.2799C57.7595 60.8786 57.7595 59.0412 57.7595 58.6399" stroke="#0499DD" stroke-width="0.6" stroke-miterlimit="10" stroke-linecap="round" stroke-linejoin="round"/>
<path d="M45.4395 61.72C45.4395 62.1213 45.4395 63.9587 45.4395 64.36C45.4395 65.5753 48.1965 66.56 51.5995 66.56C55.0024 66.56 57.7595 65.5753 57.7595 64.36C57.7595 63.9587 57.7595 62.1213 57.7595 61.72" stroke="#0499DD" stroke-width="0.6" stroke-miterlimit="10" stroke-linecap="round" stroke-linejoin="round"/>
<path d="M57.864 87.782V91.142H56.562V89H48.498L48.484 91.142H47.182L47.196 87.782H47.672C48.288 87.7447 48.722 87.2593 48.974 86.326C49.226 85.3833 49.38 84.058 49.436 82.35L49.534 79.2H56.422V87.782H57.864ZM50.668 82.476C50.6213 83.8573 50.5093 85.0007 50.332 85.906C50.164 86.8113 49.8887 87.4367 49.506 87.782H55.036V80.418H50.738L50.668 82.476ZM62.2 81.51C63.2266 81.51 64.0106 81.762 64.552 82.266C65.1026 82.77 65.378 83.5213 65.378 84.52V89H64.104V88.02C63.88 88.3653 63.558 88.6313 63.138 88.818C62.7273 88.9953 62.2373 89.084 61.668 89.084C60.8373 89.084 60.17 88.8833 59.666 88.482C59.1713 88.0807 58.924 87.5533 58.924 86.9C58.924 86.2467 59.162 85.724 59.638 85.332C60.114 84.9307 60.87 84.73 61.906 84.73H64.034V84.464C64.034 83.8853 63.866 83.442 63.53 83.134C63.194 82.826 62.6993 82.672 62.046 82.672C61.6073 82.672 61.178 82.7467 60.758 82.896C60.338 83.036 59.9833 83.2273 59.694 83.47L59.134 82.462C59.5166 82.154 59.974 81.9207 60.506 81.762C61.038 81.594 61.6026 81.51 62.2 81.51ZM61.892 88.048C62.4053 88.048 62.8486 87.936 63.222 87.712C63.5953 87.4787 63.866 87.152 64.034 86.732V85.696H61.962C60.8233 85.696 60.254 86.0787 60.254 86.844C60.254 87.2173 60.3986 87.5113 60.688 87.726C60.9773 87.9407 61.3786 88.048 61.892 88.048ZM73.7201 81.58V89H72.3761V86.004C71.5734 86.3773 70.7754 86.564 69.9821 86.564C69.0581 86.564 68.3441 86.3493 67.8401 85.92C67.3361 85.4907 67.0841 84.8467 67.0841 83.988V81.58H68.4281V83.904C68.4281 84.4173 68.5868 84.8047 68.9041 85.066C69.2308 85.3273 69.6834 85.458 70.2621 85.458C70.9154 85.458 71.6201 85.2947 72.3761 84.968V81.58H73.7201ZM78.9753 81.51C80.002 81.51 80.786 81.762 81.3273 82.266C81.878 82.77 82.1533 83.5213 82.1533 84.52V89H80.8793V88.02C80.6553 88.3653 80.3333 88.6313 79.9133 88.818C79.5027 88.9953 79.0127 89.084 78.4433 89.084C77.6127 89.084 76.9453 88.8833 76.4413 88.482C75.9467 88.0807 75.6993 87.5533 75.6993 86.9C75.6993 86.2467 75.9373 85.724 76.4133 85.332C76.8893 84.9307 77.6453 84.73 78.6813 84.73H80.8093V84.464C80.8093 83.8853 80.6413 83.442 80.3053 83.134C79.9693 82.826 79.4747 82.672 78.8213 82.672C78.3827 82.672 77.9533 82.7467 77.5333 82.896C77.1133 83.036 76.7587 83.2273 76.4693 83.47L75.9093 82.462C76.292 82.154 76.7493 81.9207 77.2813 81.762C77.8133 81.594 78.378 81.51 78.9753 81.51ZM78.6673 88.048C79.1807 88.048 79.624 87.936 79.9973 87.712C80.3707 87.4787 80.6413 87.152 80.8093 86.732V85.696H78.7373C77.5987 85.696 77.0293 86.0787 77.0293 86.844C77.0293 87.2173 77.174 87.5113 77.4633 87.726C77.7527 87.9407 78.154 88.048 78.6673 88.048ZM92.9393 89.112C91.9593 89.112 91.0726 88.8973 90.2793 88.468C89.4953 88.0293 88.8793 87.432 88.4313 86.676C87.9833 85.9107 87.7593 85.052 87.7593 84.1C87.7593 83.148 87.9833 82.294 88.4313 81.538C88.8793 80.7727 89.4999 80.1753 90.2933 79.746C91.0866 79.3073 91.9733 79.088 92.9533 79.088C93.7186 79.088 94.4186 79.2187 95.0533 79.48C95.6879 79.732 96.2293 80.11 96.6773 80.614L95.7673 81.496C95.0299 80.7213 94.1106 80.334 93.0093 80.334C92.2813 80.334 91.6233 80.4973 91.0353 80.824C90.4473 81.1507 89.9853 81.6033 89.6493 82.182C89.3226 82.7513 89.1593 83.3907 89.1593 84.1C89.1593 84.8093 89.3226 85.4533 89.6493 86.032C89.9853 86.6013 90.4473 87.0493 91.0353 87.376C91.6233 87.7027 92.2813 87.866 93.0093 87.866C94.1013 87.866 95.0206 87.474 95.7673 86.69L96.6773 87.572C96.2293 88.076 95.6833 88.4587 95.0393 88.72C94.4046 88.9813 93.7046 89.112 92.9393 89.112ZM103.707 82.756H100.991V89H99.647V82.756H96.931V81.58H103.707V82.756ZM107.727 81.51C108.754 81.51 109.538 81.762 110.079 82.266C110.63 82.77 110.905 83.5213 110.905 84.52V89H109.631V88.02C109.407 88.3653 109.085 88.6313 108.665 88.818C108.255 88.9953 107.765 89.084 107.195 89.084C106.365 89.084 105.697 88.8833 105.193 88.482C104.699 88.0807 104.451 87.5533 104.451 86.9C104.451 86.2467 104.689 85.724 105.165 85.332C105.641 84.9307 106.397 84.73 107.433 84.73H109.561V84.464C109.561 83.8853 109.393 83.442 109.057 83.134C108.721 82.826 108.227 82.672 107.573 82.672C107.135 82.672 106.705 82.7467 106.285 82.896C105.865 83.036 105.511 83.2273 105.221 83.47L104.661 82.462C105.044 82.154 105.501 81.9207 106.033 81.762C106.565 81.594 107.13 81.51 107.727 81.51ZM107.419 88.048C107.933 88.048 108.376 87.936 108.749 87.712C109.123 87.4787 109.393 87.152 109.561 86.732V85.696H107.489C106.351 85.696 105.781 86.0787 105.781 86.844C105.781 87.2173 105.926 87.5113 106.215 87.726C106.505 87.9407 106.906 88.048 107.419 88.048ZM119.695 81.58V89H118.351V82.756H115.159L115.075 84.408C115.029 85.4067 114.94 86.242 114.809 86.914C114.679 87.5767 114.464 88.1087 114.165 88.51C113.867 88.9113 113.451 89.112 112.919 89.112C112.677 89.112 112.401 89.07 112.093 88.986L112.177 87.852C112.299 87.88 112.411 87.894 112.513 87.894C112.887 87.894 113.167 87.7307 113.353 87.404C113.54 87.0773 113.661 86.69 113.717 86.242C113.773 85.794 113.825 85.1547 113.871 84.324L113.997 81.58H119.695ZM122.294 81.58H123.638V86.984L128.188 81.58H129.406V89H128.062V83.596L123.526 89H122.294V81.58ZM132.015 81.58H133.359V84.73H137.587V81.58H138.931V89H137.587V85.892H133.359V89H132.015V81.58ZM144.19 81.51C145.217 81.51 146.001 81.762 146.542 82.266C147.093 82.77 147.368 83.5213 147.368 84.52V89H146.094V88.02C145.87 88.3653 145.548 88.6313 145.128 88.818C144.718 88.9953 144.228 89.084 143.658 89.084C142.828 89.084 142.16 88.8833 141.656 88.482C141.162 88.0807 140.914 87.5533 140.914 86.9C140.914 86.2467 141.152 85.724 141.628 85.332C142.104 84.9307 142.86 84.73 143.896 84.73H146.024V84.464C146.024 83.8853 145.856 83.442 145.52 83.134C145.184 82.826 144.69 82.672 144.036 82.672C143.598 82.672 143.168 82.7467 142.748 82.896C142.328 83.036 141.974 83.2273 141.684 83.47L141.124 82.462C141.507 82.154 141.964 81.9207 142.496 81.762C143.028 81.594 143.593 81.51 144.19 81.51ZM143.882 88.048C144.396 88.048 144.839 87.936 145.212 87.712C145.586 87.4787 145.856 87.152 146.024 86.732V85.696H143.952C142.814 85.696 142.244 86.0787 142.244 86.844C142.244 87.2173 142.389 87.5113 142.678 87.726C142.968 87.9407 143.369 88.048 143.882 88.048Z" fill="#282828"/>
<defs>
<filter id="filter0_bd_55_187" x="-2" y="-3" width="200" height="140" filterUnits="userSpaceOnUse" color-interpolation-filters="sRGB">
<feFlood flood-opacity="0" result="BackgroundImageFix"/>
<feGaussianBlur in="BackgroundImage" stdDeviation="10"/>
<feComposite in2="SourceAlpha" operator="in" result="effect1_backgroundBlur_55_187"/>
<feColorMatrix in="SourceAlpha" type="matrix" values="0 0 0 0 0 0 0 0 0 0 0 0 0 0 0 0 0 0 127 0" result="hardAlpha"/>
<feOffset/>
<feGaussianBlur stdDeviation="7.5"/>
<feComposite in2="hardAlpha" operator="out"/>
<feColorMatrix type="matrix" values="0 0 0 0 0 0 0 0 0 0 0 0 0 0 0 0 0 0 0.1 0"/>
<feBlend mode="normal" in2="effect1_backgroundBlur_55_187" result="effect2_dropShadow_55_187"/>
<feBlend mode="normal" in="SourceGraphic" in2="effect2_dropShadow_55_187" result="shape"/>
</filter>
</defs>
</svg>
