<svg width="243" height="132" viewBox="0 0 243 132" fill="none" xmlns="http://www.w3.org/2000/svg">
<circle cx="28.5" cy="28.5" r="28.5" fill="#FFC700"/>
<g filter="url(#filter0_bd_55_205)">
<rect x="18" y="17" width="210" height="100" rx="10" fill="white" fill-opacity="0.2" shape-rendering="crispEdges"/>
</g>
<path d="M112.696 49.512C115.064 49.512 116.808 49.984 117.928 50.928C119.064 51.872 119.632 53.136 119.632 54.72C119.632 55.744 119.376 56.68 118.864 57.528C118.352 58.36 117.568 59.032 116.512 59.544C115.472 60.04 114.184 60.288 112.648 60.288C111.464 60.288 110.296 60.136 109.144 59.832C108.008 59.512 107.04 59.064 106.24 58.488L107.776 55.512C108.416 55.992 109.152 56.368 109.984 56.64C110.816 56.896 111.672 57.024 112.552 57.024C113.528 57.024 114.296 56.832 114.856 56.448C115.416 56.064 115.696 55.528 115.696 54.84C115.696 54.12 115.4 53.576 114.808 53.208C114.232 52.84 113.224 52.656 111.784 52.656H107.488L108.352 43.2H118.6V46.32H111.592L111.328 49.512H112.696ZM128.409 60.288C127.017 60.288 125.777 59.944 124.689 59.256C123.601 58.568 122.745 57.576 122.121 56.28C121.513 54.968 121.209 53.408 121.209 51.6C121.209 49.792 121.513 48.24 122.121 46.944C122.745 45.632 123.601 44.632 124.689 43.944C125.777 43.256 127.017 42.912 128.409 42.912C129.801 42.912 131.041 43.256 132.129 43.944C133.217 44.632 134.065 45.632 134.673 46.944C135.297 48.24 135.609 49.792 135.609 51.6C135.609 53.408 135.297 54.968 134.673 56.28C134.065 57.576 133.217 58.568 132.129 59.256C131.041 59.944 129.801 60.288 128.409 60.288ZM128.409 57C129.433 57 130.233 56.56 130.809 55.68C131.401 54.8 131.697 53.44 131.697 51.6C131.697 49.76 131.401 48.4 130.809 47.52C130.233 46.64 129.433 46.2 128.409 46.2C127.401 46.2 126.601 46.64 126.009 47.52C125.433 48.4 125.145 49.76 125.145 51.6C125.145 53.44 125.433 54.8 126.009 55.68C126.601 56.56 127.401 57 128.409 57ZM144.699 60.288C143.307 60.288 142.067 59.944 140.979 59.256C139.891 58.568 139.035 57.576 138.411 56.28C137.803 54.968 137.499 53.408 137.499 51.6C137.499 49.792 137.803 48.24 138.411 46.944C139.035 45.632 139.891 44.632 140.979 43.944C142.067 43.256 143.307 42.912 144.699 42.912C146.091 42.912 147.331 43.256 148.419 43.944C149.507 44.632 150.355 45.632 150.963 46.944C151.587 48.24 151.899 49.792 151.899 51.6C151.899 53.408 151.587 54.968 150.963 56.28C150.355 57.576 149.507 58.568 148.419 59.256C147.331 59.944 146.091 60.288 144.699 60.288ZM144.699 57C145.723 57 146.523 56.56 147.099 55.68C147.691 54.8 147.987 53.44 147.987 51.6C147.987 49.76 147.691 48.4 147.099 47.52C146.523 46.64 145.723 46.2 144.699 46.2C143.691 46.2 142.891 46.64 142.299 47.52C141.723 48.4 141.435 49.76 141.435 51.6C141.435 53.44 141.723 54.8 142.299 55.68C142.891 56.56 143.691 57 144.699 57ZM166.608 54.504V55.848H171.792V57.84H166.608V60H162.696V57.84H160.368V55.848H162.696V43.2H169.968C172.256 43.2 174.04 43.68 175.32 44.64C176.616 45.6 177.264 47.008 177.264 48.864C177.264 50.704 176.616 52.104 175.32 53.064C174.04 54.024 172.256 54.504 169.968 54.504H166.608ZM173.328 48.888C173.328 48.072 173.032 47.448 172.44 47.016C171.864 46.584 171.032 46.368 169.944 46.368H166.608V51.456H169.944C171.032 51.456 171.864 51.24 172.44 50.808C173.032 50.36 173.328 49.72 173.328 48.888Z" fill="#0499DD"/>
<path d="M85.4002 45.8399C88.8023 45.8399 91.5602 44.855 91.5602 43.6399C91.5602 42.4249 88.8023 41.4399 85.4002 41.4399C81.9982 41.4399 79.2402 42.4249 79.2402 43.6399C79.2402 44.855 81.9982 45.8399 85.4002 45.8399Z" stroke="#0499DD" stroke-width="0.6" stroke-miterlimit="10" stroke-linecap="round" stroke-linejoin="round"/>
<path d="M79.2402 44.0801C79.2402 44.4814 79.2402 46.3188 79.2402 46.7201C79.2402 47.9349 81.9973 48.9201 85.4002 48.9201C88.8032 48.9201 91.5602 47.9349 91.5602 46.7201C91.5602 46.3188 91.5602 44.4814 91.5602 44.0801" stroke="#0499DD" stroke-width="0.6" stroke-miterlimit="10" stroke-linecap="round" stroke-linejoin="round"/>
<path d="M82.5625 51.7531C83.4117 51.9106 84.3771 51.9999 85.4005 51.9999C88.8035 51.9999 91.5605 51.0148 91.5605 49.7999C91.5605 49.3986 91.5605 47.5612 91.5605 47.1599" stroke="#0499DD" stroke-width="0.6" stroke-miterlimit="10" stroke-linecap="round" stroke-linejoin="round"/>
<path d="M79.2402 47.1599C79.2402 47.5612 79.2402 49.0387 79.2402 49.0387" stroke="#0499DD" stroke-width="0.6" stroke-miterlimit="10" stroke-linecap="round" stroke-linejoin="round"/>
<path d="M82.7715 54.8701C83.5688 55.0047 84.4598 55.08 85.4005 55.08C88.8034 55.08 91.5605 54.0953 91.5605 52.88C91.5605 52.4787 91.5605 50.6413 91.5605 50.24" stroke="#0499DD" stroke-width="0.6" stroke-miterlimit="10" stroke-linecap="round" stroke-linejoin="round"/>
<path d="M82.7373 57.9445C83.5429 58.0826 84.4463 58.1601 85.4002 58.1601C88.8031 58.1601 91.5602 57.1753 91.5602 55.9601C91.5602 55.5588 91.5602 53.7213 91.5602 53.3201" stroke="#0499DD" stroke-width="0.6" stroke-miterlimit="10" stroke-linecap="round" stroke-linejoin="round"/>
<path d="M76.5995 53.3199C80.0015 53.3199 82.7595 52.3349 82.7595 51.1199C82.7595 49.9049 80.0015 48.9199 76.5995 48.9199C73.1974 48.9199 70.4395 49.9049 70.4395 51.1199C70.4395 52.3349 73.1974 53.3199 76.5995 53.3199Z" stroke="#0499DD" stroke-width="0.6" stroke-miterlimit="10" stroke-linecap="round" stroke-linejoin="round"/>
<path d="M70.4395 51.5601C70.4395 51.9613 70.4395 53.7988 70.4395 54.2001C70.4395 55.4153 73.1965 56.4001 76.5995 56.4001C80.0024 56.4001 82.7595 55.4153 82.7595 54.2001C82.7595 53.7988 82.7595 51.9613 82.7595 51.5601" stroke="#0499DD" stroke-width="0.6" stroke-miterlimit="10" stroke-linecap="round" stroke-linejoin="round"/>
<path d="M70.4395 54.6399C70.4395 55.0412 70.4395 56.8786 70.4395 57.2799C70.4395 58.4952 73.1965 59.4799 76.5995 59.4799C80.0024 59.4799 82.7595 58.4952 82.7595 57.2799C82.7595 56.8786 82.7595 55.0412 82.7595 54.6399" stroke="#0499DD" stroke-width="0.6" stroke-miterlimit="10" stroke-linecap="round" stroke-linejoin="round"/>
<path d="M70.4395 57.72C70.4395 58.1213 70.4395 59.9587 70.4395 60.36C70.4395 61.5753 73.1965 62.56 76.5995 62.56C80.0024 62.56 82.7595 61.5753 82.7595 60.36C82.7595 59.9587 82.7595 58.1213 82.7595 57.72" stroke="#0499DD" stroke-width="0.6" stroke-miterlimit="10" stroke-linecap="round" stroke-linejoin="round"/>
<path d="M47.26 76.418H43.9V85H42.528V76.418H39.182V75.2H47.26V76.418ZM54.6779 81.332C54.6779 81.4347 54.6686 81.57 54.6499 81.738H48.6299C48.7139 82.3913 48.9986 82.9187 49.4839 83.32C49.9786 83.712 50.5899 83.908 51.3179 83.908C52.2046 83.908 52.9186 83.6093 53.4599 83.012L54.2019 83.88C53.8659 84.272 53.4459 84.5707 52.9419 84.776C52.4473 84.9813 51.8919 85.084 51.2759 85.084C50.4919 85.084 49.7966 84.9253 49.1899 84.608C48.5833 84.2813 48.1119 83.8287 47.7759 83.25C47.4493 82.6713 47.2859 82.018 47.2859 81.29C47.2859 80.5713 47.4446 79.9227 47.7619 79.344C48.0886 78.7653 48.5319 78.3173 49.0919 78C49.6613 77.6733 50.3006 77.51 51.0099 77.51C51.7193 77.51 52.3493 77.6733 52.8999 78C53.4599 78.3173 53.8939 78.7653 54.2019 79.344C54.5193 79.9227 54.6779 80.5853 54.6779 81.332ZM51.0099 78.644C50.3659 78.644 49.8246 78.84 49.3859 79.232C48.9566 79.624 48.7046 80.1373 48.6299 80.772H53.3899C53.3153 80.1467 53.0586 79.638 52.6199 79.246C52.1906 78.8447 51.6539 78.644 51.0099 78.644ZM60.6969 77.51C61.4156 77.51 62.0596 77.6687 62.6289 77.986C63.1983 78.3033 63.6416 78.7467 63.9589 79.316C64.2856 79.8853 64.4489 80.5433 64.4489 81.29C64.4489 82.0367 64.2856 82.6993 63.9589 83.278C63.6416 83.8473 63.1983 84.2907 62.6289 84.608C62.0596 84.9253 61.4156 85.084 60.6969 85.084C60.1649 85.084 59.6749 84.9813 59.2269 84.776C58.7883 84.5707 58.4149 84.272 58.1069 83.88V87.716H56.7629V77.58H58.0509V78.756C58.3496 78.3453 58.7276 78.0373 59.1849 77.832C59.6423 77.6173 60.1463 77.51 60.6969 77.51ZM60.5849 83.908C61.0609 83.908 61.4856 83.8007 61.8589 83.586C62.2416 83.362 62.5403 83.054 62.7549 82.662C62.9789 82.2607 63.0909 81.8033 63.0909 81.29C63.0909 80.7767 62.9789 80.324 62.7549 79.932C62.5403 79.5307 62.2416 79.2227 61.8589 79.008C61.4856 78.7933 61.0609 78.686 60.5849 78.686C60.1183 78.686 59.6936 78.798 59.3109 79.022C58.9376 79.2367 58.6389 79.54 58.4149 79.932C58.2003 80.324 58.0929 80.7767 58.0929 81.29C58.0929 81.8033 58.2003 82.2607 58.4149 82.662C58.6296 83.054 58.9283 83.362 59.3109 83.586C59.6936 83.8007 60.1183 83.908 60.5849 83.908ZM74.9556 77.58V85H73.7376V79.582L70.9656 84.16H70.3776L67.6336 79.568V85H66.4016V77.58H67.7876L70.6996 82.592L73.6956 77.58H74.9556ZM80.2175 77.51C81.2442 77.51 82.0282 77.762 82.5695 78.266C83.1202 78.77 83.3955 79.5213 83.3955 80.52V85H82.1215V84.02C81.8975 84.3653 81.5755 84.6313 81.1555 84.818C80.7449 84.9953 80.2549 85.084 79.6855 85.084C78.8549 85.084 78.1875 84.8833 77.6835 84.482C77.1889 84.0807 76.9415 83.5533 76.9415 82.9C76.9415 82.2467 77.1795 81.724 77.6555 81.332C78.1315 80.9307 78.8875 80.73 79.9235 80.73H82.0515V80.464C82.0515 79.8853 81.8835 79.442 81.5475 79.134C81.2115 78.826 80.7169 78.672 80.0635 78.672C79.6249 78.672 79.1955 78.7467 78.7755 78.896C78.3555 79.036 78.0009 79.2273 77.7115 79.47L77.1515 78.462C77.5342 78.154 77.9915 77.9207 78.5235 77.762C79.0555 77.594 79.6202 77.51 80.2175 77.51ZM79.9095 84.048C80.4229 84.048 80.8662 83.936 81.2395 83.712C81.6129 83.4787 81.8835 83.152 82.0515 82.732V81.696H79.9795C78.8409 81.696 78.2715 82.0787 78.2715 82.844C78.2715 83.2173 78.4162 83.5113 78.7055 83.726C78.9949 83.9407 79.3962 84.048 79.9095 84.048ZM92.1857 77.58V85H90.8417V78.756H87.6497L87.5657 80.408C87.519 81.4067 87.4303 82.242 87.2997 82.914C87.169 83.5767 86.9543 84.1087 86.6557 84.51C86.357 84.9113 85.9417 85.112 85.4097 85.112C85.167 85.112 84.8917 85.07 84.5837 84.986L84.6677 83.852C84.789 83.88 84.901 83.894 85.0037 83.894C85.377 83.894 85.657 83.7307 85.8437 83.404C86.0303 83.0773 86.1517 82.69 86.2077 82.242C86.2637 81.794 86.315 81.1547 86.3617 80.324L86.4877 77.58H92.1857ZM98.2144 80.1C99.1571 80.1093 99.8758 80.324 100.37 80.744C100.865 81.164 101.112 81.7567 101.112 82.522C101.112 83.3247 100.842 83.9453 100.3 84.384C99.7684 84.8133 99.0031 85.0233 98.0044 85.014L94.7844 85V77.58H96.1284V80.086L98.2144 80.1ZM97.8924 83.992C98.4991 84.0013 98.9564 83.88 99.2644 83.628C99.5818 83.376 99.7404 83.0027 99.7404 82.508C99.7404 82.0227 99.5864 81.668 99.2784 81.444C98.9798 81.22 98.5178 81.1033 97.8924 81.094L96.1284 81.066V83.978L97.8924 83.992ZM102.837 77.58H104.181V80.73H108.409V77.58H109.753V85H108.409V81.892H104.181V85H102.837V77.58ZM115.712 80.1C116.646 80.1093 117.36 80.324 117.854 80.744C118.349 81.164 118.596 81.7567 118.596 82.522C118.596 83.3247 118.326 83.9453 117.784 84.384C117.252 84.8133 116.487 85.0233 115.488 85.014L112.366 85V77.58H113.71V80.086L115.712 80.1ZM119.702 77.58H121.046V85H119.702V77.58ZM115.39 83.992C115.997 84.0013 116.454 83.88 116.762 83.628C117.08 83.376 117.238 83.0027 117.238 82.508C117.238 82.0227 117.084 81.668 116.776 81.444C116.468 81.22 116.006 81.1033 115.39 81.094L113.71 81.066V83.978L115.39 83.992ZM123.659 77.58H125.003V82.984L129.553 77.58H130.771V85H129.427V79.596L124.891 85H123.659V77.58ZM127.131 76.614C126.441 76.614 125.904 76.4507 125.521 76.124C125.139 75.788 124.943 75.3073 124.933 74.682H125.843C125.853 75.0273 125.969 75.3073 126.193 75.522C126.427 75.7273 126.735 75.83 127.117 75.83C127.5 75.83 127.808 75.7273 128.041 75.522C128.275 75.3073 128.396 75.0273 128.405 74.682H129.343C129.334 75.3073 129.133 75.788 128.741 76.124C128.349 76.4507 127.813 76.614 127.131 76.614ZM137.14 77.58H138.484V82.984L143.034 77.58H144.252V85H142.908V79.596L138.372 85H137.14V77.58ZM150.095 85.084C149.339 85.084 148.662 84.9207 148.065 84.594C147.477 84.2673 147.015 83.8193 146.679 83.25C146.343 82.6713 146.175 82.018 146.175 81.29C146.175 80.562 146.343 79.9133 146.679 79.344C147.015 78.7653 147.477 78.3173 148.065 78C148.662 77.6733 149.339 77.51 150.095 77.51C150.767 77.51 151.364 77.6453 151.887 77.916C152.419 78.1867 152.829 78.5787 153.119 79.092L152.097 79.75C151.863 79.3953 151.574 79.1293 151.229 78.952C150.883 78.7747 150.501 78.686 150.081 78.686C149.595 78.686 149.157 78.7933 148.765 79.008C148.382 79.2227 148.079 79.5307 147.855 79.932C147.64 80.324 147.533 80.7767 147.533 81.29C147.533 81.8127 147.64 82.2747 147.855 82.676C148.079 83.068 148.382 83.3713 148.765 83.586C149.157 83.8007 149.595 83.908 150.081 83.908C150.501 83.908 150.883 83.8193 151.229 83.642C151.574 83.4647 151.863 83.1987 152.097 82.844L153.119 83.488C152.829 84.0013 152.419 84.398 151.887 84.678C151.364 84.9487 150.767 85.084 150.095 85.084ZM160.293 78.756H157.577V85H156.233V78.756H153.517V77.58H160.293V78.756ZM164.517 85.084C163.78 85.084 163.117 84.9207 162.529 84.594C161.941 84.2673 161.479 83.8193 161.143 83.25C160.816 82.6713 160.653 82.018 160.653 81.29C160.653 80.562 160.816 79.9133 161.143 79.344C161.479 78.7653 161.941 78.3173 162.529 78C163.117 77.6733 163.78 77.51 164.517 77.51C165.254 77.51 165.912 77.6733 166.491 78C167.079 78.3173 167.536 78.7653 167.863 79.344C168.199 79.9133 168.367 80.562 168.367 81.29C168.367 82.018 168.199 82.6713 167.863 83.25C167.536 83.8193 167.079 84.2673 166.491 84.594C165.912 84.9207 165.254 85.084 164.517 85.084ZM164.517 83.908C164.993 83.908 165.418 83.8007 165.791 83.586C166.174 83.362 166.472 83.054 166.687 82.662C166.902 82.2607 167.009 81.8033 167.009 81.29C167.009 80.7767 166.902 80.324 166.687 79.932C166.472 79.5307 166.174 79.2227 165.791 79.008C165.418 78.7933 164.993 78.686 164.517 78.686C164.041 78.686 163.612 78.7933 163.229 79.008C162.856 79.2227 162.557 79.5307 162.333 79.932C162.118 80.324 162.011 80.7767 162.011 81.29C162.011 81.8033 162.118 82.2607 162.333 82.662C162.557 83.054 162.856 83.362 163.229 83.586C163.612 83.8007 164.041 83.908 164.517 83.908ZM176.23 77.58V85H174.886V82.004C174.083 82.3773 173.285 82.564 172.492 82.564C171.568 82.564 170.854 82.3493 170.35 81.92C169.846 81.4907 169.594 80.8467 169.594 79.988V77.58H170.938V79.904C170.938 80.4173 171.097 80.8047 171.414 81.066C171.741 81.3273 172.193 81.458 172.772 81.458C173.425 81.458 174.13 81.2947 174.886 80.968V77.58H176.23ZM178.839 77.58H180.183V80.73H184.411V77.58H185.755V85H184.411V81.892H180.183V85H178.839V77.58ZM188.368 77.58H189.712V82.984L194.262 77.58H195.48V85H194.136V79.596L189.6 85H188.368V77.58ZM200.973 81.864H199.433V85H198.089V77.58H199.433V80.716H201.001L203.409 77.58H204.851L202.037 81.15L205.047 85H203.465L200.973 81.864Z" fill="#282828"/>
<defs>
<filter id="filter0_bd_55_205" x="-2" y="-3" width="250" height="140" filterUnits="userSpaceOnUse" color-interpolation-filters="sRGB">
<feFlood flood-opacity="0" result="BackgroundImageFix"/>
<feGaussianBlur in="BackgroundImage" stdDeviation="10"/>
<feComposite in2="SourceAlpha" operator="in" result="effect1_backgroundBlur_55_205"/>
<feColorMatrix in="SourceAlpha" type="matrix" values="0 0 0 0 0 0 0 0 0 0 0 0 0 0 0 0 0 0 127 0" result="hardAlpha"/>
<feOffset/>
<feGaussianBlur stdDeviation="7.5"/>
<feComposite in2="hardAlpha" operator="out"/>
<feColorMatrix type="matrix" values="0 0 0 0 0 0 0 0 0 0 0 0 0 0 0 0 0 0 0.1 0"/>
<feBlend mode="normal" in2="effect1_backgroundBlur_55_205" result="effect2_dropShadow_55_205"/>
<feBlend mode="normal" in="SourceGraphic" in2="effect2_dropShadow_55_205" result="shape"/>
</filter>
</defs>
</svg>
