<svg width="193" height="132" viewBox="0 0 193 132" fill="none" xmlns="http://www.w3.org/2000/svg">
<circle cx="28.5" cy="28.5" r="28.5" fill="#FFC700"/>
<g filter="url(#filter0_bd_71_2379)">
<rect x="18" y="17" width="160" height="100" rx="10" fill="white" fill-opacity="0.2" shape-rendering="crispEdges"/>
</g>
<path d="M67.416 58.2V75H63.528V61.32H60.168V58.2H67.416ZM82.8864 71.832V75H70.1904V72.48L76.6704 66.36C77.3584 65.704 77.8224 65.144 78.0624 64.68C78.3024 64.2 78.4224 63.728 78.4224 63.264C78.4224 62.592 78.1904 62.08 77.7264 61.728C77.2784 61.36 76.6144 61.176 75.7344 61.176C74.9984 61.176 74.3344 61.32 73.7424 61.608C73.1504 61.88 72.6544 62.296 72.2544 62.856L69.4224 61.032C70.0784 60.056 70.9824 59.296 72.1344 58.752C73.2864 58.192 74.6064 57.912 76.0944 57.912C77.3424 57.912 78.4304 58.12 79.3584 58.536C80.3024 58.936 81.0304 59.512 81.5424 60.264C82.0704 61 82.3344 61.872 82.3344 62.88C82.3344 63.792 82.1424 64.648 81.7584 65.448C81.3744 66.248 80.6304 67.16 79.5264 68.184L75.6624 71.832H82.8864ZM103.768 62.088V75H100.024V70.2C98.9356 70.744 97.7356 71.016 96.4236 71.016C94.6796 71.016 93.3596 70.624 92.4636 69.84C91.5836 69.04 91.1436 67.808 91.1436 66.144V62.088H94.8876V65.904C94.8876 66.688 95.0876 67.256 95.4876 67.608C95.9036 67.96 96.4956 68.136 97.2636 68.136C98.2396 68.136 99.1596 67.928 100.024 67.512V62.088H103.768ZM112.379 61.896C114.379 61.896 115.915 62.376 116.987 63.336C118.059 64.28 118.595 65.712 118.595 67.632V75H115.091V73.392C114.387 74.592 113.075 75.192 111.155 75.192C110.163 75.192 109.299 75.024 108.562 74.688C107.843 74.352 107.291 73.888 106.907 73.296C106.523 72.704 106.331 72.032 106.331 71.28C106.331 70.08 106.779 69.136 107.675 68.448C108.587 67.76 109.987 67.416 111.875 67.416H114.851C114.851 66.6 114.603 65.976 114.107 65.544C113.611 65.096 112.867 64.872 111.875 64.872C111.187 64.872 110.507 64.984 109.835 65.208C109.179 65.416 108.619 65.704 108.155 66.072L106.811 63.456C107.515 62.96 108.355 62.576 109.331 62.304C110.323 62.032 111.339 61.896 112.379 61.896ZM112.091 72.672C112.731 72.672 113.299 72.528 113.795 72.24C114.291 71.936 114.643 71.496 114.851 70.92V69.6H112.283C110.747 69.6 109.979 70.104 109.979 71.112C109.979 71.592 110.163 71.976 110.531 72.264C110.915 72.536 111.435 72.672 112.091 72.672ZM127.991 75.192C126.615 75.192 125.375 74.912 124.271 74.352C123.183 73.776 122.327 72.984 121.703 71.976C121.095 70.968 120.791 69.824 120.791 68.544C120.791 67.264 121.095 66.12 121.703 65.112C122.327 64.104 123.183 63.32 124.271 62.76C125.375 62.184 126.615 61.896 127.991 61.896C129.351 61.896 130.535 62.184 131.543 62.76C132.567 63.32 133.311 64.128 133.775 65.184L130.871 66.744C130.199 65.56 129.231 64.968 127.967 64.968C126.991 64.968 126.183 65.288 125.543 65.928C124.903 66.568 124.583 67.44 124.583 68.544C124.583 69.648 124.903 70.52 125.543 71.16C126.183 71.8 126.991 72.12 127.967 72.12C129.247 72.12 130.215 71.528 130.871 70.344L133.775 71.928C133.311 72.952 132.567 73.752 131.543 74.328C130.535 74.904 129.351 75.192 127.991 75.192ZM141.934 75.192C140.574 75.192 139.35 74.912 138.262 74.352C137.19 73.776 136.35 72.984 135.742 71.976C135.134 70.968 134.83 69.824 134.83 68.544C134.83 67.264 135.134 66.12 135.742 65.112C136.35 64.104 137.19 63.32 138.262 62.76C139.35 62.184 140.574 61.896 141.934 61.896C143.294 61.896 144.51 62.184 145.582 62.76C146.654 63.32 147.494 64.104 148.102 65.112C148.71 66.12 149.014 67.264 149.014 68.544C149.014 69.824 148.71 70.968 148.102 71.976C147.494 72.984 146.654 73.776 145.582 74.352C144.51 74.912 143.294 75.192 141.934 75.192ZM141.934 72.12C142.894 72.12 143.678 71.8 144.286 71.16C144.91 70.504 145.222 69.632 145.222 68.544C145.222 67.456 144.91 66.592 144.286 65.952C143.678 65.296 142.894 64.968 141.934 64.968C140.974 64.968 140.182 65.296 139.558 65.952C138.934 66.592 138.622 67.456 138.622 68.544C138.622 69.632 138.934 70.504 139.558 71.16C140.182 71.8 140.974 72.12 141.934 72.12ZM161.453 68.256C162.973 68.768 163.733 69.792 163.733 71.328C163.733 72.496 163.293 73.4 162.413 74.04C161.533 74.68 160.221 75 158.477 75H151.589V62.088H158.189C159.805 62.088 161.069 62.384 161.981 62.976C162.893 63.552 163.349 64.368 163.349 65.424C163.349 66.064 163.181 66.632 162.845 67.128C162.525 67.608 162.061 67.984 161.453 68.256ZM155.021 67.392H157.853C159.165 67.392 159.821 66.928 159.821 66C159.821 65.088 159.165 64.632 157.853 64.632H155.021V67.392ZM158.165 72.456C159.541 72.456 160.229 71.984 160.229 71.04C160.229 70.544 160.069 70.184 159.749 69.96C159.429 69.72 158.925 69.6 158.237 69.6H155.021V72.456H158.165Z" fill="#0499DD"/>
<path d="M40 76.375C38.1458 76.375 36.3332 75.8252 34.7915 74.795C33.2498 73.7649 32.0482 72.3007 31.3386 70.5877C30.6291 68.8746 30.4434 66.9896 30.8051 65.171C31.1669 63.3525 32.0598 61.682 33.3709 60.3709C34.682 59.0598 36.3525 58.1669 38.171 57.8051C39.9896 57.4434 41.8746 57.6291 43.5877 58.3386C45.3007 59.0482 46.7649 60.2498 47.795 61.7915C48.8252 63.3332 49.375 65.1458 49.375 67C49.375 69.4864 48.3873 71.871 46.6291 73.6291C44.871 75.3873 42.4864 76.375 40 76.375ZM40 58.875C38.393 58.875 36.8221 59.3515 35.486 60.2443C34.1498 61.1371 33.1084 62.4061 32.4935 63.8907C31.8785 65.3753 31.7176 67.009 32.0311 68.5851C32.3446 70.1612 33.1185 71.6089 34.2548 72.7452C35.3911 73.8815 36.8388 74.6554 38.4149 74.9689C39.991 75.2824 41.6247 75.1215 43.1093 74.5065C44.594 73.8916 45.8629 72.8502 46.7557 71.514C47.6485 70.1779 48.125 68.607 48.125 67C48.125 64.8451 47.269 62.7785 45.7452 61.2548C44.2215 59.731 42.1549 58.875 40 58.875Z" fill="#0499DD"/>
<path d="M42.65 70.5375L39.5563 67.4437C39.4983 67.3853 39.4525 67.3161 39.4214 67.2399C39.3903 67.1638 39.3745 67.0823 39.375 67V62H40.625V66.7437L43.5375 69.65L42.65 70.5375Z" fill="#0499DD"/>
<defs>
<filter id="filter0_bd_71_2379" x="-2" y="-3" width="200" height="140" filterUnits="userSpaceOnUse" color-interpolation-filters="sRGB">
<feFlood flood-opacity="0" result="BackgroundImageFix"/>
<feGaussianBlur in="BackgroundImage" stdDeviation="10"/>
<feComposite in2="SourceAlpha" operator="in" result="effect1_backgroundBlur_71_2379"/>
<feColorMatrix in="SourceAlpha" type="matrix" values="0 0 0 0 0 0 0 0 0 0 0 0 0 0 0 0 0 0 127 0" result="hardAlpha"/>
<feOffset/>
<feGaussianBlur stdDeviation="7.5"/>
<feComposite in2="hardAlpha" operator="out"/>
<feColorMatrix type="matrix" values="0 0 0 0 0 0 0 0 0 0 0 0 0 0 0 0 0 0 0.1 0"/>
<feBlend mode="normal" in2="effect1_backgroundBlur_71_2379" result="effect2_dropShadow_71_2379"/>
<feBlend mode="normal" in="SourceGraphic" in2="effect2_dropShadow_71_2379" result="shape"/>
</filter>
</defs>
</svg>
